<?xml version="1.0" standalone="no"?><!DOCTYPE svg PUBLIC "-//W3C//DTD SVG 1.1//EN" "http://www.w3.org/Graphics/SVG/1.1/DTD/svg11.dtd"><svg xmlns:xlink="http://www.w3.org/1999/xlink" version="1.1" style="font-family:'lucida grande', 'lucida sans unicode', arial, helvetica, sans-serif;font-size:12px;" xmlns="http://www.w3.org/2000/svg" width="600" height="550"><desc>Created with Highcharts 4.1.4</desc><defs><clipPath id="highcharts-7"><rect x="0" y="0" width="528" height="422"></rect></clipPath></defs><rect x="0" y="0" width="600" height="550" strokeWidth="0" fill="#FFFFFF" class=" highcharts-background"></rect><g class="highcharts-grid" ></g><g class="highcharts-grid" ><path fill="none" d="M 62 496.5 L 590 496.5" stroke="#D8D8D8" stroke-width="1"  opacity="1"></path><path fill="none" d="M 62 436.5 L 590 436.5" stroke="#D8D8D8" stroke-width="1"  opacity="1"></path><path fill="none" d="M 62 375.5 L 590 375.5" stroke="#D8D8D8" stroke-width="1"  opacity="1"></path><path fill="none" d="M 62 315.5 L 590 315.5" stroke="#D8D8D8" stroke-width="1"  opacity="1"></path><path fill="none" d="M 62 255.5 L 590 255.5" stroke="#D8D8D8" stroke-width="1"  opacity="1"></path><path fill="none" d="M 62 195.5 L 590 195.5" stroke="#D8D8D8" stroke-width="1"  opacity="1"></path><path fill="none" d="M 62 134.5 L 590 134.5" stroke="#D8D8D8" stroke-width="1"  opacity="1"></path><path fill="none" d="M 62 73.5 L 590 73.5" stroke="#D8D8D8" stroke-width="1"  opacity="1"></path></g><g class="highcharts-axis" ><path fill="none" d="M 106.5 496 L 106.5 506" stroke="#C0D0E0" stroke-width="1" opacity="1"></path><path fill="none" d="M 229.5 496 L 229.5 506" stroke="#C0D0E0" stroke-width="1" opacity="1"></path><path fill="none" d="M 349.5 496 L 349.5 506" stroke="#C0D0E0" stroke-width="1" opacity="1"></path><path fill="none" d="M 472.5 496 L 472.5 506" stroke="#C0D0E0" stroke-width="1" opacity="1"></path><text x="326"  text-anchor="middle" transform="translate(0,0)" class=" highcharts-xaxis-title" style="color:#707070;fill:#707070;" visibility="visible" y="533">TimeLine</text><path fill="none" d="M 62 496.5 L 590 496.5" stroke="#C0D0E0" stroke-width="1"  visibility="visible"></path></g><g class="highcharts-axis" ><text x="23.6875"  text-anchor="middle" transform="translate(0,0) rotate(270 23.6875 285)" class=" highcharts-yaxis-title" style="color:#707070;fill:#707070;" visibility="visible" y="285"><tspan>Size In GB </tspan></text></g><g class="highcharts-series-group" ><g class="highcharts-series" visibility="visible"  transform="translate(62,74) scale(1 1)" clip-path="url(#highcharts-7)"><path fill="none" d="M 5.1764705882352935 356.168 C 5.1764705882352935 356.168 7.565610859728506 341.9405714285714 9.158371040723981 341.9405714285714 C 10.751131221719456 341.9405714285714 11.547511312217194 348.9337142857143 13.14027149321267 348.9337142857143 C 16.32579185520362 348.9337142857143 17.918552036199095 340.61428571428564 21.104072398190045 339.16742857142856 C 25.88235294117647 337.7205714285715 28.27149321266968 337.7205714285715 33.049773755656105 337.7205714285715 C 39.420814479638004 337.7205714285715 42.60633484162896 337.7205714285715 48.977375565610856 337.7205714285715 C 60.126696832579185 337.7205714285715 65.70135746606334 332.36719999999997 76.85067873303167 328.0748571428571 C 88 323.7825142857142 93.57466063348416 320.9430571428571 104.72398190045249 316.25885714285715 C 119.05882352941175 310.2363142857143 126.22624434389141 307.8808653061224 140.56108597285066 301.308 C 159.67420814479638 292.5441795918367 169.23076923076923 287.2074887218045 188.34389140271492 277.91714285714284 C 199.49321266968326 272.4977744360902 205.06787330316743 270.3362142857143 216.21719457013575 264.53371428571427 C 230.55203619909503 257.0733571428571 237.71945701357464 252.7177142857143 252.05429864253392 244.76000000000002 C 261.6108597285068 239.45485714285715 266.3891402714932 237.54240879120886 275.9457013574661 231.37657142857145 C 287.09502262443436 224.18309450549455 292.66968325791856 219.0541714285714 303.81900452488685 211.3617142857143 C 314.9683257918552 203.66925714285713 320.54298642533934 200.96845714285715 331.6923076923077 192.9142857142857 C 342.841628959276 184.86011428571427 348.4162895927601 182.88274285714292 359.5656108597285 171.09085714285712 C 370.7149321266968 159.29897142857146 376.289592760181 142.75657142857136 387.4389140271493 133.95485714285712 C 398.5882352941177 125.15314285714288 404.16289592760177 130.39892747252748 415.3122171945701 125.15314285714288 C 424.8687782805429 120.65675604395611 429.6470588235294 119.66065054945064 439.20361990950227 109.59942857142863 C 450.35294117647055 97.86133626373635 455.92760180995475 81.79565714285717 467.07692307692304 70.65485714285717 C 483.0045248868778 54.73942857142855 490.9683257918552 53.292571428571385 506.89592760180994 41.958857142857084 C 513.2669683257918 37.42537142857138 522.8235294117646 30.98685714285716 522.8235294117646 30.98685714285716" stroke="#7cb5ec" stroke-width="2"  stroke-linejoin="round" stroke-linecap="round"></path></g><g class="highcharts-markers" visibility="visible"  transform="translate(62,74) scale(1 1)" clip-path="none"></g></g><text x="300" text-anchor="middle" class="highcharts-title"  style="color:#333333;font-size:18px;fill:#333333;width:536px;" y="24"><tspan> Ethereum ChainData Size (Geth w/FAST Sync) </tspan></text><text x="300" text-anchor="middle" class="highcharts-subtitle"  style="color:#555555;fill:#555555;width:536px;" y="44"><tspan>Source: Etherscan.io</tspan><tspan x="300" dy="15">Click and drag in the plot area to zoom in</tspan></text><g class="highcharts-axis-labels highcharts-xaxis-labels" ><text x="106.99547511312217" style="color:#606060;cursor:default;font-size:11px;fill:#606060;width:135px;text-overflow:clip;" text-anchor="middle" transform="translate(0,0)" y="515" opacity="1"><tspan>1. Oct</tspan></text><text x="230.4343891402715" style="color:#606060;cursor:default;font-size:11px;fill:#606060;width:135px;text-overflow:clip;" text-anchor="middle" transform="translate(0,0)" y="515" opacity="1"><tspan>1. Nov</tspan></text><text x="349.8914027149321" style="color:#606060;cursor:default;font-size:11px;fill:#606060;width:135px;text-overflow:clip;" text-anchor="middle" transform="translate(0,0)" y="515" opacity="1"><tspan>1. Dec</tspan></text><text x="473.33031674208144" style="color:#606060;cursor:default;font-size:11px;fill:#606060;width:135px;text-overflow:clip;" text-anchor="middle" transform="translate(0,0)" y="515" opacity="1"><tspan>1. Jan</tspan></text></g><g class="highcharts-axis-labels highcharts-yaxis-labels" ><text x="47" style="color:#606060;cursor:default;font-size:11px;fill:#606060;width:188px;text-overflow:clip;" text-anchor="end" transform="translate(0,0)" y="501" opacity="1">15</text><text x="47" style="color:#606060;cursor:default;font-size:11px;fill:#606060;width:188px;text-overflow:clip;" text-anchor="end" transform="translate(0,0)" y="441" opacity="1">20</text><text x="47" style="color:#606060;cursor:default;font-size:11px;fill:#606060;width:188px;text-overflow:clip;" text-anchor="end" transform="translate(0,0)" y="380" opacity="1">25</text><text x="47" style="color:#606060;cursor:default;font-size:11px;fill:#606060;width:188px;text-overflow:clip;" text-anchor="end" transform="translate(0,0)" y="320" opacity="1">30</text><text x="47" style="color:#606060;cursor:default;font-size:11px;fill:#606060;width:188px;text-overflow:clip;" text-anchor="end" transform="translate(0,0)" y="260" opacity="1">35</text><text x="47" style="color:#606060;cursor:default;font-size:11px;fill:#606060;width:188px;text-overflow:clip;" text-anchor="end" transform="translate(0,0)" y="200" opacity="1">40</text><text x="47" style="color:#606060;cursor:default;font-size:11px;fill:#606060;width:188px;text-overflow:clip;" text-anchor="end" transform="translate(0,0)" y="139" opacity="1">45</text><text x="47" style="color:#606060;cursor:default;font-size:11px;fill:#606060;width:188px;text-overflow:clip;" text-anchor="end" transform="translate(0,0)" y="79" opacity="1">50</text></g><g class="highcharts-tooltip"  style="cursor:default;padding:0;white-space:nowrap;" transform="translate(0,-9999)"><path fill="none" d="M 3 0 L 13 0 C 16 0 16 0 16 3 L 16 13 C 16 16 16 16 13 16 L 3 16 C 0 16 0 16 0 13 L 0 3 C 0 0 0 0 3 0"  stroke="black" stroke-opacity="0.049999999999999996" stroke-width="5" transform="translate(1, 1)"></path><path fill="none" d="M 3 0 L 13 0 C 16 0 16 0 16 3 L 16 13 C 16 16 16 16 13 16 L 3 16 C 0 16 0 16 0 13 L 0 3 C 0 0 0 0 3 0"  stroke="black" stroke-opacity="0.09999999999999999" stroke-width="3" transform="translate(1, 1)"></path><path fill="none" d="M 3 0 L 13 0 C 16 0 16 0 16 3 L 16 13 C 16 16 16 16 13 16 L 3 16 C 0 16 0 16 0 13 L 0 3 C 0 0 0 0 3 0"  stroke="black" stroke-opacity="0.15" stroke-width="1" transform="translate(1, 1)"></path><path fill="rgb(249, 249, 249)" fill-opacity=" .85" d="M 3 0 L 13 0 C 16 0 16 0 16 3 L 16 13 C 16 16 16 16 13 16 L 3 16 C 0 16 0 16 0 13 L 0 3 C 0 0 0 0 3 0"></path><text x="8"  style="font-size:12px;color:#333333;fill:#333333;" transform="translate(0,20)"></text></g></svg>