<?xml version="1.0" standalone="no"?><!DOCTYPE svg PUBLIC "-//W3C//DTD SVG 1.1//EN" "http://www.w3.org/Graphics/SVG/1.1/DTD/svg11.dtd"><svg xmlns:xlink="http://www.w3.org/1999/xlink" version="1.1" style="font-family:'lucida grande', 'lucida sans unicode', arial, helvetica, sans-serif;font-size:12px;" xmlns="http://www.w3.org/2000/svg" width="600" height="550"><desc>Created with Highcharts 4.1.4</desc><defs><clipPath id="highcharts-7"><rect x="0" y="0" width="504" height="441"></rect></clipPath></defs><rect x="0" y="0" width="600" height="550" strokeWidth="0" fill="#FFFFFF" class=" highcharts-background"></rect><g class="highcharts-grid" ></g><g class="highcharts-grid" ><path fill="none" d="M 86 515.5 L 590 515.5" stroke="#D8D8D8" stroke-width="1"  opacity="1"></path><path fill="none" d="M 86 442.5 L 590 442.5" stroke="#D8D8D8" stroke-width="1"  opacity="1"></path><path fill="none" d="M 86 368.5 L 590 368.5" stroke="#D8D8D8" stroke-width="1"  opacity="1"></path><path fill="none" d="M 86 295.5 L 590 295.5" stroke="#D8D8D8" stroke-width="1"  opacity="1"></path><path fill="none" d="M 86 221.5 L 590 221.5" stroke="#D8D8D8" stroke-width="1"  opacity="1"></path><path fill="none" d="M 86 148.5 L 590 148.5" stroke="#D8D8D8" stroke-width="1"  opacity="1"></path><path fill="none" d="M 86 73.5 L 590 73.5" stroke="#D8D8D8" stroke-width="1"  opacity="1"></path></g><g class="highcharts-axis" ><path fill="none" d="M 174.5 515 L 174.5 525" stroke="#C0D0E0" stroke-width="1" opacity="1"></path><path fill="none" d="M 273.5 515 L 273.5 525" stroke="#C0D0E0" stroke-width="1" opacity="1"></path><path fill="none" d="M 372.5 515 L 372.5 525" stroke="#C0D0E0" stroke-width="1" opacity="1"></path><path fill="none" d="M 470.5 515 L 470.5 525" stroke="#C0D0E0" stroke-width="1" opacity="1"></path><path fill="none" d="M 570.5 515 L 570.5 525" stroke="#C0D0E0" stroke-width="1" opacity="1"></path><path fill="none" d="M 86 515.5 L 590 515.5" stroke="#C0D0E0" stroke-width="1"  visibility="visible"></path></g><g class="highcharts-axis" ><text x="24.03125"  text-anchor="middle" transform="translate(0,0) rotate(270 24.03125 294.5)" class=" highcharts-yaxis-title" style="color:#707070;fill:#707070;" visibility="visible" y="294.5"><tspan>Transactions Per Day </tspan></text></g><g class="highcharts-series-group" ><g class="highcharts-series" visibility="visible"  transform="translate(86,74) scale(1 1)" clip-path="url(#highcharts-7)"><path fill="none" d="M 4.9411764705882355 438.385458 L 5.4829721362229105 441 L 6.024767801857585 441 L 6.56656346749226 441 L 7.1083591331269345 441 L 7.650154798761609 441 L 8.191950464396285 441 L 8.73374613003096 441 L 9.275541795665635 440.3973 L 9.81733746130031 440.152986 L 10.359133126934985 440.609274 L 10.90092879256966 440.401122 L 11.442724458204335 439.540878 L 11.984520123839008 440.401416 L 12.526315789473683 440.164452 L 13.068111455108358 440.066844 L 13.609907120743033 440.328504 L 14.151702786377708 440.261472 L 14.693498452012383 440.28264 L 15.235294117647058 440.266764 L 15.777089783281733 440.045676 L 16.318885448916408 440.322918 L 16.860681114551085 439.847814 L 17.402476780185758 439.947774 L 17.944272445820435 439.76814 L 18.486068111455108 439.696992 L 19.027863777089784 439.680822 L 19.569659442724458 439.778136 L 20.111455108359134 439.35654 L 20.653250773993808 439.601148 L 21.195046439628484 439.783134 L 21.736842105263158 439.655832 L 22.27863777089783 439.472376 L 22.820433436532507 439.485018 L 23.36222910216718 439.47267 L 23.904024767801857 439.595562 L 24.44582043343653 439.341252 L 24.987616099071207 439.377414 L 25.52941176470588 439.376826 L 26.071207430340557 439.323612 L 26.61300309597523 439.347132 L 27.154798761609907 439.352424 L 27.69659442724458 439.429746 L 28.238390092879257 439.10076 L 28.78018575851393 439.354776 L 29.321981424148607 439.219242 L 29.86377708978328 439.361832 L 30.405572755417957 439.409754 L 30.94736842105263 439.273632 L 31.489164086687307 439.421808 L 32.030959752321984 439.294212 L 32.57275541795666 439.46973 L 33.11455108359133 439.117812 L 33.656346749226 439.14633 L 34.19814241486068 438.999624 L 34.73993808049536 438.823224 L 35.28173374613003 439.170144 L 35.8235294117647 439.279806 L 36.36532507739938 439.263342 L 36.907120743034056 439.30656 L 37.44891640866873 439.199838 L 37.9907120743034 439.313028 L 38.53250773993808 439.27422 L 39.074303405572756 439.112226 L 39.61609907120743 439.217478 L 40.1578947368421 439.203072 L 40.69969040247678 439.052544 L 41.241486068111456 439.153974 L 41.78328173374613 439.101348 L 42.3250773993808 438.906426 L 42.866873065015476 438.963756 L 43.408668730650156 439.011678 L 43.95046439628483 439.080474 L 44.4922600619195 439.229238 L 45.034055727554176 439.061658 L 45.575851393188856 438.995508 L 46.11764705882353 438.99198 L 46.6594427244582 439.089294 L 47.201238390092875 439.00227 L 47.743034055727556 439.069302 L 48.28482972136223 439.094586 L 48.8266253869969 439.058424 L 49.368421052631575 439.266282 L 49.910216718266255 439.242174 L 50.45201238390093 439.182492 L 50.9938080495356 438.974928 L 51.535603715170275 439.129866 L 52.077399380804955 439.28598 L 52.61919504643963 439.254228 L 53.1609907120743 439.005504 L 53.702786377708975 438.840276 L 54.244582043343655 438.696216 L 54.78637770897833 438.665346 L 55.328173374613 438.778242 L 55.869969040247675 438.96699 L 56.411764705882355 439.071948 L 56.95356037151703 438.824694 L 57.4953560371517 438.931122 L 58.037151702786375 438.795588 L 58.578947368421055 438.682692 L 59.12074303405573 437.767176 L 59.6625386996904 437.350578 L 60.204334365325074 438.739434 L 60.746130030959755 438.603606 L 61.28792569659443 437.996202 L 61.8297213622291 438.197004 L 62.371517027863774 438.680046 L 62.91331269349845 438.879966 L 63.45510835913313 438.89202 L 63.9969040247678 438.812052 L 64.53869969040248 438.89937 L 65.08049535603715 438.832338 L 65.62229102167183 438.390456 L 66.1640866873065 439.133688 L 66.70588235294117 438.994332 L 67.24767801857585 438.917598 L 67.78947368421052 438.57156 L 68.3312693498452 438.897312 L 68.87306501547988 438.913188 L 69.41486068111455 438.860268 L 69.95665634674923 439.048134 L 70.4984520123839 438.995802 L 71.04024767801857 438.985218 L 71.58204334365325 438.358116 L 72.12383900928792 439.002564 L 72.6656346749226 438.950526 L 73.20743034055728 439.088412 L 73.74922600619195 438.971988 L 74.29102167182663 439.005504 L 74.8328173374613 438.323718 L 75.37461300309597 438.900546 L 75.91640866873065 439.031082 L 76.45820433436532 438.941706 L 77 438.811464 L 77.54179566563468 438.61713 L 78.08359133126935 438.58773 L 78.62538699690403 438.816756 L 79.16718266253869 436.4283 L 79.70897832817337 434.797188 L 80.25077399380805 437.970624 L 80.79256965944272 438.174072 L 81.3343653250774 438.344592 L 81.87616099071208 438.261684 L 82.41795665634675 438.095574 L 82.95975232198143 437.453478 L 83.50154798761609 434.818062 L 84.04334365325077 434.31444 L 84.58513931888545 437.032764 L 85.12693498452012 438.200826 L 85.6687306501548 437.846556 L 86.21052631578947 434.571102 L 86.75232198142415 437.363808 L 87.29411764705883 437.660748 L 87.83591331269349 434.600502 L 88.37770897832817 437.971506 L 88.91950464396285 438.579498 L 89.46130030959752 438.305784 L 90.0030959752322 438.278148 L 90.54489164086687 438.214644 L 91.08668730650155 436.16958 L 91.62848297213623 435.980244 L 92.17027863777089 434.50995 L 92.71207430340557 437.789814 L 93.25386996904025 437.532858 L 93.79566563467492 437.96592 L 94.3374613003096 437.797458 L 94.87925696594426 437.806572 L 95.42105263157895 435.80649 L 95.96284829721363 437.868018 L 96.50464396284829 438.09675 L 97.04643962848297 437.864784 L 97.58823529411765 438.134382 L 98.13003095975232 437.202696 L 98.671826625387 437.05452 L 99.21362229102166 437.88066 L 99.75541795665634 437.844204 L 100.29721362229103 436.928688 L 100.83900928792569 437.75865 L 101.38080495356037 437.237388 L 101.92260061919505 435.966426 L 102.46439628482972 436.145766 L 103.0061919504644 435.488382 L 103.54798761609906 436.07109 L 104.08978328173374 436.17987 L 104.63157894736842 436.689666 L 105.17337461300309 436.835196 L 105.71517027863777 436.825494 L 106.25696594427244 436.798446 L 106.79876160990712 436.803444 L 107.3405572755418 436.774926 L 107.88235294117646 436.516794 L 108.42414860681114 431.763108 L 108.96594427244582 436.806384 L 109.50773993808049 436.672614 L 110.04953560371517 436.438002 L 110.59133126934984 435.960546 L 111.13312693498452 434.69664 L 111.6749226006192 435.317862 L 112.21671826625386 435.675954 L 112.75851393188854 436.112544 L 113.30030959752322 435.955254 L 113.84210526315789 435.840594 L 114.38390092879257 435.12293999999997 L 114.92569659442724 436.011114 L 115.46749226006192 435.586872 L 116.0092879256966 436.086084 L 116.55108359133126 435.967014 L 117.09287925696594 435.65214 L 117.63467492260062 435.566292 L 118.17647058823529 435.25524 L 118.71826625386997 435.266118 L 119.26006191950464 434.806008 L 119.80185758513932 435.419586 L 120.343653250774 435.395478 L 120.88544891640866 435.014748 L 121.42724458204334 434.597268 L 121.96904024767802 434.072772 L 122.51083591331269 433.697922 L 123.05263157894737 433.859622 L 123.59442724458204 433.02819 L 124.13622291021672 432.867666 L 124.6780185758514 434.158326 L 125.21981424148606 433.913424 L 125.76160990712074 433.780242 L 126.30340557275541 433.704684 L 126.84520123839009 434.201544 L 127.38699690402477 432.801222 L 127.92879256965944 432.730662 L 128.47058823529412 432.612768 L 129.0123839009288 432.393738 L 129.55417956656348 432.886776 L 130.09597523219813 431.141886 L 130.6377708978328 431.644626 L 131.1795665634675 430.774974 L 131.72136222910217 431.460582 L 132.26315789473685 431.441766 L 132.8049535603715 431.33034 L 133.34674922600618 431.654916 L 133.88854489164086 430.137582 L 134.43034055727554 430.191972 L 134.97213622291022 430.226076 L 135.5139318885449 432.187644 L 136.05572755417955 431.117778 L 136.59752321981424 431.02899 L 137.13931888544892 430.190502 L 137.6811145510836 431.515854 L 138.22291021671828 431.20392 L 138.76470588235293 432.368748 L 139.3065015479876 432.301128 L 139.8482972136223 430.737342 L 140.39009287925697 429.483138 L 140.93188854489165 431.569068 L 141.4736842105263 431.623458 L 142.01547987616098 431.00106 L 142.55727554179566 431.614638 L 143.09907120743034 431.522322 L 143.64086687306502 432.083862 L 144.18266253869967 430.806138 L 144.72445820433435 430.401006 L 145.26625386996903 430.774386 L 145.80804953560371 430.722054 L 146.3498452012384 432.037998 L 146.89164086687308 429.180318 L 147.43343653250773 431.147178 L 147.9752321981424 431.409132 L 148.5170278637771 431.314464 L 149.05882352941177 430.068786 L 149.60061919504645 431.686668 L 150.1424148606811 431.63757 L 150.68421052631578 430.990476 L 151.22600619195046 430.58358 L 151.76780185758514 431.420892 L 152.30959752321982 431.048982 L 152.85139318885447 430.903158 L 153.39318885448915 430.024392 L 153.93498452012383 427.543914 L 154.4767801857585 429.364068 L 155.0185758513932 428.726088 L 155.56037151702787 429.880626 L 156.10216718266253 429.979704 L 156.6439628482972 429.620142 L 157.1857585139319 428.866326 L 157.72755417956657 430.455984 L 158.26934984520125 429.221478 L 158.8111455108359 429.66336 L 159.35294117647058 429.038904 L 159.89473684210526 429.001566 L 160.43653250773994 427.769412 L 160.97832817337462 426.965322 L 161.52012383900927 427.55097 L 162.06191950464395 428.336538 L 162.60371517027863 429.997344 L 163.1455108359133 429.149154 L 163.687306501548 427.466298 L 164.22910216718265 427.910238 L 164.77089783281733 427.717962 L 165.312693498452 428.175426 L 165.8544891640867 429.56487 L 166.39628482972137 428.121036 L 166.93808049535605 428.384166 L 167.4798761609907 427.345758 L 168.02167182662538 425.962782 L 168.56346749226006 420.376488 L 169.10526315789474 426.592236 L 169.64705882352942 427.50834 L 170.18885448916407 428.379462 L 170.73065015479875 427.950516 L 171.27244582043343 428.587026 L 171.8142414860681 429.338196 L 172.3560371517028 429.288804 L 172.89783281733745 429.86475 L 173.43962848297213 429.858576 L 173.9814241486068 429.546642 L 174.5232198142415 427.434546 L 175.06501547987617 429.112698 L 175.60681114551085 429.282924 L 176.1486068111455 429.19737 L 176.69040247678018 430.151106 L 177.23219814241486 428.481186 L 177.77399380804954 427.42161 L 178.31578947368422 426.20151 L 178.85758513931887 428.284206 L 179.39938080495355 428.242752 L 179.94117647058823 421.431948 L 180.4829721362229 422.453598 L 181.0247678018576 425.99571 L 181.56656346749224 427.147308 L 182.10835913312692 427.087038 L 182.6501547987616 426.70719 L 183.19195046439629 427.672686 L 183.73374613003097 428.679048 L 184.27554179566562 430.214904 L 184.8173374613003 428.765778 L 185.35913312693498 429.339078 L 185.90092879256966 428.331834 L 186.44272445820434 426.330282 L 186.98452012383902 422.198112 L 187.52631578947367 429.21501 L 188.06811145510835 429.458442 L 188.60990712074303 429.311442 L 189.1517027863777 429.2547 L 189.6934984520124 429.45462 L 190.23529411764704 429.8574 L 190.77708978328172 429.112698 L 191.3188854489164 428.503236 L 191.86068111455108 429.11946 L 192.40247678018576 429.428748 L 192.94427244582042 429.656892 L 193.4860681114551 429.001566 L 194.02786377708978 430.49244 L 194.56965944272446 428.414154 L 195.11145510835914 428.91366 L 195.65325077399382 429.809772 L 196.19504643962847 431.029284 L 196.73684210526315 429.475788 L 197.27863777089783 428.009904 L 197.8204334365325 426.114486 L 198.3622291021672 427.804692 L 198.90402476780184 426.753348 L 199.44582043343652 427.768236 L 199.9876160990712 423.88479 L 200.52941176470588 424.872336 L 201.07120743034056 422.79258 L 201.61300309597522 425.40771 L 202.1547987616099 426.72483 L 202.69659442724458 427.110558 L 203.23839009287926 428.648766 L 203.78018575851394 426.667794 L 204.3219814241486 427.482468 L 204.86377708978327 426.581946 L 205.40557275541795 426.45435 L 205.94736842105263 427.252266 L 206.4891640866873 428.295672 L 207.030959752322 428.802822 L 207.57275541795664 428.37123 L 208.11455108359132 428.362704 L 208.656346749226 427.39074 L 209.19814241486068 427.165242 L 209.73993808049536 426.837726 L 210.28173374613002 427.9464 L 210.8235294117647 428.920128 L 211.36532507739938 429.070362 L 211.90712074303406 428.563212 L 212.44891640866874 426.608994 L 212.9907120743034 427.809102 L 213.53250773993807 426.947094 L 214.07430340557275 428.373288 L 214.61609907120743 428.852508 L 215.1578947368421 428.492358 L 215.6996904024768 427.9905 L 216.24148606811144 426.76158 L 216.78328173374612 427.234626 L 217.3250773993808 426.338808 L 217.86687306501548 427.096152 L 218.40866873065016 426.906228 L 218.95046439628481 428.473542 L 219.4922600619195 427.62006 L 220.03405572755418 427.188174 L 220.57585139318886 427.521276 L 221.11764705882354 427.037646 L 221.6594427244582 424.708578 L 222.20123839009287 427.831152 L 222.74303405572755 426.850368 L 223.28482972136223 428.455902 L 223.8266253869969 426.564012 L 224.36842105263156 426.681906 L 224.91021671826624 424.54482 L 225.45201238390092 425.148108 L 225.9938080495356 428.39475 L 226.53560371517028 428.25657 L 227.07739938080496 427.733838 L 227.61919504643961 428.478246 L 228.1609907120743 425.165454 L 228.70278637770897 425.529132 L 229.24458204334366 424.085592 L 229.78637770897834 427.216692 L 230.328173374613 429.859458 L 230.86996904024767 429.09153 L 231.41176470588235 425.104302 L 231.95356037151703 427.902594 L 232.4953560371517 425.518842 L 233.03715170278636 430.645614 L 233.57894736842104 428.235108 L 234.12074303405572 429.618378 L 234.6625386996904 428.206884 L 235.20433436532508 427.235802 L 235.74613003095976 429.117696 L 236.2879256965944 428.417682 L 236.8297213622291 430.464216 L 237.37151702786377 425.395656 L 237.91331269349845 425.97513 L 238.45510835913313 426.984432 L 238.9969040247678 424.341372 L 239.53869969040247 428.734614 L 240.08049535603715 430.173156 L 240.62229102167183 428.149848 L 241.1640866873065 429.91914 L 241.70588235294116 428.08164 L 242.24767801857584 427.78764 L 242.78947368421052 428.930418 L 243.3312693498452 432.179412 L 243.87306501547988 431.520264 L 244.41486068111453 428.650236 L 244.9566563467492 431.103372 L 245.4984520123839 430.71294 L 246.04024767801857 429.788016 L 246.58204334365325 425.741988 L 247.12383900928793 429.681882 L 247.6656346749226 428.229228 L 248.20743034055727 424.01268 L 248.74922600619195 429.895032 L 249.29102167182663 430.602984 L 249.8328173374613 425.551182 L 250.37461300309596 427.00266 L 250.91640866873064 427.723548 L 251.45820433436532 427.960218 L 252 428.792532 L 252.54179566563468 429.236766 L 253.08359133126933 429.40611 L 253.625386996904 427.760886 L 254.1671826625387 426.58665 L 254.70897832817337 428.205414 L 255.25077399380805 428.550276 L 255.79256965944273 431.423832 L 256.3343653250774 429.91914 L 256.8761609907121 430.889046 L 257.41795665634675 428.669346 L 257.9597523219814 428.778714 L 258.5015479876161 429.088002 L 259.04334365325076 429.191784 L 259.58513931888547 428.92542 L 260.1269349845201 428.980692 L 260.66873065015477 428.160138 L 261.2105263157895 427.67298 L 261.75232198142413 428.100456 L 262.29411764705884 428.744904 L 262.8359133126935 429.023028 L 263.37770897832814 428.12721 L 263.91950464396285 429.449034 L 264.4613003095975 428.61525 L 265.0030959752322 428.43591 L 265.54489164086687 425.24601 L 266.0866873065015 422.099034 L 266.6284829721362 430.162866 L 267.1702786377709 423.92595 L 267.7120743034056 429.003624 L 268.25386996904024 427.931994 L 268.7956656346749 426.773928 L 269.3374613003096 427.171416 L 269.87925696594425 429.481668 L 270.42105263157896 430.086426 L 270.9628482972136 428.757252 L 271.5046439628483 428.841042 L 272.046439628483 429.344958 L 272.5882352941176 428.765778 L 273.13003095975233 426.8292 L 273.671826625387 428.723442 L 274.2136222910217 429.361422 L 274.75541795665634 428.815464 L 275.297213622291 429.074184 L 275.8390092879257 429.485784 L 276.38080495356036 429.610146 L 276.92260061919507 427.868784 L 277.4643962848297 427.095564 L 278.00619195046437 427.446012 L 278.5479876160991 428.077818 L 279.08978328173373 429.404052 L 279.63157894736844 430.22784 L 280.1733746130031 427.593894 L 280.71517027863774 427.993146 L 281.25696594427245 426.066858 L 281.7987616099071 424.779138 L 282.3405572755418 427.949046 L 282.88235294117646 429.899442 L 283.4241486068111 430.239306 L 283.9659442724458 430.83789 L 284.5077399380805 428.54322 L 285.0495356037152 428.244516 L 285.59133126934984 427.315476 L 286.1331269349845 427.899066 L 286.6749226006192 428.88132 L 287.21671826625385 429.61338 L 287.75851393188856 429.342312 L 288.3003095975232 427.510398 L 288.84210526315786 426.102138 L 289.38390092879257 426.418776 L 289.9256965944272 428.121624 L 290.46749226006193 428.175132 L 291.0092879256966 428.438262 L 291.5510835913313 427.420728 L 292.09287925696594 426.835374 L 292.6346749226006 427.705026 L 293.1764705882353 426.126834 L 293.71826625386996 426.055098 L 294.26006191950466 428.639064 L 294.8018575851393 428.726088 L 295.34365325077397 427.65975 L 295.8854489164087 427.278726 L 296.42724458204333 427.771764 L 296.96904024767804 428.173368 L 297.5108359133127 427.54215 L 298.05263157894734 428.269212 L 298.59442724458205 427.054992 L 299.1362229102167 427.453656 L 299.6780185758514 426.178284 L 300.21981424148606 427.400736 L 300.7616099071207 427.224336 L 301.3034055727554 427.27608 L 301.8452012383901 427.714434 L 302.3869969040248 428.502354 L 302.92879256965944 427.661514 L 303.4705882352941 428.167194 L 304.0123839009288 427.904946 L 304.55417956656345 428.149554 L 305.09597523219816 428.423268 L 305.6377708978328 427.64946 L 306.17956656346746 427.316652 L 306.72136222910217 427.092036 L 307.2631578947368 425.751396 L 307.80495356037153 425.979834 L 308.3467492260062 426.925338 L 308.88854489164083 425.646732 L 309.43034055727554 427.31136 L 309.9721362229102 427.676214 L 310.5139318885449 424.53894 L 311.05572755417955 423.860388 L 311.59752321981426 424.73592 L 312.1393188854489 426.395844 L 312.68111455108357 426.474636 L 313.2229102167183 426.476988 L 313.7647058823529 426.821262 L 314.30650154798764 426.255312 L 314.8482972136223 423.820404 L 315.39009287925694 426.190632 L 315.93188854489165 427.005306 L 316.4736842105263 425.100186 L 317.015479876161 425.34597 L 317.55727554179566 425.795496 L 318.0990712074303 425.523252 L 318.640866873065 423.278562 L 319.1826625386997 423.426444 L 319.7244582043344 420.190974 L 320.26625386996903 422.097564 L 320.8080495356037 423.725736 L 321.3498452012384 424.232886 L 321.89164086687305 424.23612 L 322.43343653250776 422.598834 L 322.9752321981424 424.716516 L 323.51702786377706 422.105796 L 324.05882352941177 421.851192 L 324.6006191950464 421.947918 L 325.14241486068113 421.406076 L 325.6842105263158 416.974908 L 326.22600619195043 418.31643 L 326.76780185758514 417.12573 L 327.3095975232198 408.67470000000003 L 327.8513931888545 409.64931 L 328.39318885448915 414.56352 L 328.9349845201238 416.127894 L 329.4767801857585 417.402384 L 330.01857585139317 416.216388 L 330.5603715170279 417.826626 L 331.1021671826625 416.764404 L 331.64396284829724 415.19415 L 332.1857585139319 416.18816400000003 L 332.72755417956654 417.617004 L 333.26934984520125 413.19642 L 333.8111455108359 416.201688 L 334.3529411764706 413.639184 L 334.89473684210526 412.714554 L 335.4365325077399 410.688012 L 335.9783281733746 417.311832 L 336.5201238390093 414.849288 L 337.061919504644 411.535026 L 337.60371517027863 415.633974 L 338.1455108359133 415.301166 L 338.687306501548 413.017962 L 339.22910216718265 413.703276 L 339.77089783281735 419.789664 L 340.312693498452 419.080242 L 340.85448916408666 418.806822 L 341.39628482972137 418.688046 L 341.938080495356 417.377982 L 342.4798761609907 416.267544 L 343.0216718266254 417.14043 L 343.56346749226003 419.00292 L 344.10526315789474 420.233604 L 344.6470588235294 419.671476 L 345.1888544891641 416.508918 L 345.73065015479875 415.794204 L 346.2724458204334 415.8777 L 346.8142414860681 417.104268 L 347.35603715170276 419.379534 L 347.8978328173375 418.340538 L 348.4396284829721 417.323886 L 348.9814241486068 413.648298 L 349.5232198142415 414.645252 L 350.06501547987614 410.278764 L 350.60681114551085 409.779258 L 351.1486068111455 414.14751 L 351.6904024767802 413.010612 L 352.23219814241486 408.012612 L 352.7739938080495 408.555924 L 353.3157894736842 412.383804 L 353.85758513931887 407.226162 L 354.3993808049536 409.096884 L 354.94117647058823 413.065884 L 355.4829721362229 409.650486 L 356.0247678018576 406.452354 L 356.56656346749224 407.797698 L 357.10835913312695 408.756138 L 357.6501547987616 406.546434 L 358.19195046439626 409.471146 L 358.73374613003097 411.208392 L 359.2755417956656 411.203688 L 359.8173374613003 404.899152 L 360.359133126935 406.795746 L 360.90092879256963 399.80031 L 361.44272445820434 400.601754 L 361.984520123839 393.499008 L 362.5263157894737 402.511872 L 363.06811145510835 396.988494 L 363.609907120743 389.18103 L 364.1517027863777 385.986426 L 364.69349845201236 385.935858 L 365.2352941176471 387.19506 L 365.7770897832817 391.073508 L 366.3188854489164 397.0617 L 366.8606811145511 395.350326 L 367.40247678018574 394.387182 L 367.94427244582045 384.076308 L 368.4860681114551 378.046956 L 369.02786377708975 382.44696 L 369.56965944272446 383.696166 L 370.1114551083591 389.354196 L 370.6532507739938 388.040016 L 371.19504643962847 385.05033000000003 L 371.7368421052632 382.046238 L 372.27863777089783 380.08908 L 372.8204334365325 385.8162 L 373.3622291021672 377.545686 L 373.90402476780184 378.273336 L 374.44582043343655 370.29594 L 374.9876160990712 354.87534600000004 L 375.52941176470586 358.664124 L 376.07120743034056 367.37946 L 376.6130030959752 364.084602 L 377.1547987616099 368.08711800000003 L 377.6965944272446 369.845532 L 378.23839009287923 368.688642 L 378.78018575851394 356.854554 L 379.3219814241486 350.304528 L 379.8637770897833 375.941034 L 380.40557275541795 357.43785 L 380.9473684210526 359.85247200000003 L 381.4891640866873 367.33242 L 382.03095975232196 373.04631 L 382.57275541795667 347.864328 L 383.1145510835913 366.61947 L 383.656346749226 360.373146 L 384.1981424148607 363.445446 L 384.73993808049534 366.72031200000004 L 385.28173374613004 370.30329 L 385.8235294117647 367.906602 L 386.36532507739935 352.202592 L 386.90712074303406 358.24929 L 387.4489164086687 361.147836 L 387.9907120743034 364.915446 L 388.53250773993807 354.155634 L 389.0743034055727 368.046252 L 389.61609907120743 374.794434 L 390.1578947368421 352.025898 L 390.6996904024768 355.246962 L 391.24148606811144 357.554568 L 391.78328173374615 364.34096999999997 L 392.3250773993808 367.681986 L 392.86687306501545 372.803466 L 393.40866873065016 367.753428 L 393.9504643962848 367.948938 L 394.4922600619195 361.30983000000003 L 395.0340557275542 361.584132 L 395.5758513931888 367.48089 L 396.11764705882354 372.62736 L 396.6594427244582 380.561244 L 397.2012383900929 364.41594 L 397.74303405572755 363.65007 L 398.2848297213622 369.570936 L 398.8266253869969 375.43506 L 399.36842105263156 374.72211 L 399.91021671826627 368.530764 L 400.4520123839009 382.560738 L 400.9938080495356 380.252544 L 401.5356037151703 367.47354 L 402.07739938080493 376.736892 L 402.61919504643964 373.066008 L 403.1609907120743 371.51751 L 403.70278637770895 365.39495999999997 L 404.24458204334366 364.14840000000004 L 404.7863777089783 363.052662 L 405.328173374613 358.33543199999997 L 405.86996904024767 347.253396 L 406.4117647058823 358.589448 L 406.953560371517 341.557146 L 407.4953560371517 336.135492 L 408.0371517027864 341.435724 L 408.57894736842104 343.094766 L 409.1207430340557 320.442066 L 409.6625386996904 319.505676 L 410.20433436532505 319.394544 L 410.74613003095976 315.165942 L 411.2879256965944 310.65333599999997 L 411.8297213622291 330.039108 L 412.3715170278638 349.881756 L 412.9133126934984 325.49328 L 413.45510835913313 333.770262 L 413.9969040247678 330.834966 L 414.5386996904025 337.37529 L 415.08049535603715 337.329426 L 415.6222910216718 350.95720800000004 L 416.1640866873065 345.693138 L 416.70588235294116 334.043094 L 417.24767801857587 324.97319400000003 L 417.7894736842105 323.33532 L 418.3312693498452 327.980226 L 418.8730650154799 326.046882 L 419.41486068111453 343.451682 L 419.95665634674924 352.05765 L 420.4984520123839 310.877952 L 421.04024767801855 310.295832 L 421.58204334365325 295.06545600000004 L 422.1238390092879 309.18598199999997 L 422.6656346749226 304.68102 L 423.20743034055727 328.20572400000003 L 423.7492260061919 345.412368 L 424.2910216718266 333.577104 L 424.8328173374613 321.959988 L 425.374613003096 333.490374 L 425.91640866873064 329.206206 L 426.4582043343653 311.120502 L 427 331.113384 L 427.54179566563465 355.882002 L 428.08359133126936 334.34738400000003 L 428.625386996904 341.700912 L 429.16718266253866 345.454704 L 429.7089783281734 347.780244 L 430.250773993808 361.18782 L 430.79256965944273 364.528542 L 431.3343653250774 358.406874 L 431.8761609907121 350.855484 L 432.41795665634675 351.01395 L 432.9597523219814 350.140182 L 433.5015479876161 344.212848 L 434.04334365325076 345.008412 L 434.58513931888547 354.035388 L 435.1269349845201 357.541926 L 435.66873065015477 351.00807 L 436.2105263157895 344.595636 L 436.75232198142413 350.624694 L 437.29411764705884 348.44644800000003 L 437.8359133126935 346.954692 L 438.37770897832814 355.419246 L 438.91950464396285 353.732274 L 439.4613003095975 344.517432 L 440.0030959752322 338.21613 L 440.54489164086687 339.77433 L 441.0866873065015 334.157166 L 441.6284829721362 329.534016 L 442.1702786377709 343.342314 L 442.7120743034056 344.297226 L 443.25386996904024 320.960682 L 443.7956656346749 292.350366 L 444.3374613003096 302.687994 L 444.87925696594425 295.709904 L 445.42105263157896 280.229922 L 445.9628482972136 304.906812 L 446.50464396284826 312.965058 L 447.046439628483 303.358608 L 447.5882352941176 296.267328 L 448.13003095975233 305.636814 L 448.671826625387 303.87663599999996 L 449.21362229102164 298.072782 L 449.75541795665634 298.54112399999997 L 450.297213622291 295.712256 L 450.8390092879257 284.407956 L 451.38080495356036 288.14763600000003 L 451.92260061919507 285.831798 L 452.4643962848297 285.392562 L 453.00619195046437 298.17774 L 453.5479876160991 323.765148 L 454.08978328173373 318.372012 L 454.63157894736844 290.571078 L 455.1733746130031 302.697108 L 455.71517027863774 299.758578 L 456.25696594427245 303.651432 L 456.7987616099071 306.51646200000005 L 457.3405572755418 325.052868 L 457.88235294117646 313.29228 L 458.4241486068111 310.706256 L 458.9659442724458 301.060704 L 459.5077399380805 282.065658 L 460.0495356037152 296.50429199999996 L 460.59133126934984 291.47454000000005 L 461.1331269349845 305.854374 L 461.6749226006192 304.418478 L 462.21671826625385 285.138546 L 462.75851393188856 286.931064 L 463.3003095975232 280.33223399999997 L 463.84210526315786 283.102008 L 464.38390092879257 286.49447399999997 L 464.9256965944272 276.017196 L 465.46749226006193 281.509704 L 466.0092879256966 262.04367 L 466.55108359133123 253.137234 L 467.09287925696594 245.90777400000002 L 467.6346749226006 248.29564200000002 L 468.1764705882353 257.92032 L 468.71826625386996 256.43120999999996 L 469.2600619195046 237.02044800000002 L 469.8018575851393 234.660804 L 470.34365325077397 237.23154 L 470.8854489164087 208.226676 L 471.42724458204333 247.23400800000002 L 471.96904024767804 197.303694 L 472.5108359133127 184.53204 L 473.05263157894734 173.568486 L 473.59442724458205 163.887654 L 474.1362229102167 175.122276 L 474.6780185758514 176.44204200000001 L 475.21981424148606 183.287244 L 475.7616099071207 151.69782600000002 L 476.3034055727554 119.88320400000003 L 476.8452012383901 151.085424 L 477.3869969040248 125.63649000000004 L 477.92879256965944 116.56423799999999 L 478.4705882352941 170.84898600000002 L 479.0123839009288 218.079204 L 479.55417956656345 219.805866 L 480.09597523219816 201.82806 L 480.6377708978328 172.650912 L 481.17956656346746 161.846118 L 481.72136222910217 120.48384600000003 L 482.2631578947368 106.82225399999999 L 482.80495356037153 162.587586 L 483.3467492260062 173.77017 L 483.88854489164083 101.742816 L 484.43034055727554 77.01918 L 484.9721362229102 44.13234 L 485.5139318885449 67.156362 L 486.05572755417955 80.433402 L 486.5975232198142 102.09973200000002 L 487.1393188854489 83.650938 L 487.68111455108357 71.66543999999999 L 488.2229102167183 94.76060999999999 L 488.7647058823529 95.85428999999999 L 489.3065015479876 112.085442 L 489.8482972136223 94.27962600000001 L 490.39009287925694 123.01165800000001 L 490.93188854489165 86.31252 L 491.4736842105263 65.28681599999999 L 492.015479876161 65.537598 L 492.55727554179566 86.675904 L 493.0990712074303 134.282442 L 493.640866873065 151.56023400000004 L 494.1826625386997 145.08017999999998 L 494.7244582043344 154.96416600000003 L 495.26625386996903 168.022764 L 495.8080495356037 172.38160800000003 L 496.3498452012384 209.17659 L 496.89164086687305 160.69187399999998 L 497.43343653250776 196.394352 L 497.9752321981424 179.60342400000002 L 498.51702786377706 165.56757 L 499.05882352941177 174.466068" stroke="#7cb5ec" stroke-width="2"  stroke-linejoin="round" stroke-linecap="round"></path></g><g class="highcharts-markers" visibility="visible"  transform="translate(86,74) scale(1 1)" clip-path="none"></g></g><text x="300" text-anchor="middle" class="highcharts-title"  style="color:#333333;font-size:18px;fill:#333333;width:536px;" y="24"><tspan> Ethereum Transaction Chart </tspan></text><text x="300" text-anchor="middle" class="highcharts-subtitle"  style="color:#555555;fill:#555555;width:536px;" y="44"><tspan>Source: Etherscan.io</tspan><tspan x="300" dy="15">Click and drag in the plot area to zoom in</tspan></text><g class="highcharts-axis-labels highcharts-xaxis-labels" ><text x="174.91950464396285" style="color:#606060;cursor:default;font-size:11px;fill:#606060;width:106px;text-overflow:clip;" text-anchor="middle" transform="translate(0,0)" y="534" opacity="1"><tspan>Jan '16</tspan></text><text x="273.52631578947364" style="color:#606060;cursor:default;font-size:11px;fill:#606060;width:106px;text-overflow:clip;" text-anchor="middle" transform="translate(0,0)" y="534" opacity="1"><tspan>Jul '16</tspan></text><text x="373.21671826625385" style="color:#606060;cursor:default;font-size:11px;fill:#606060;width:106px;text-overflow:clip;" text-anchor="middle" transform="translate(0,0)" y="534" opacity="1"><tspan>Jan '17</tspan></text><text x="471.28173374613004" style="color:#606060;cursor:default;font-size:11px;fill:#606060;width:106px;text-overflow:clip;" text-anchor="middle" transform="translate(0,0)" y="534" opacity="1"><tspan>Jul '17</tspan></text><text x="570.9721362229102" style="color:#606060;cursor:default;font-size:11px;fill:#606060;width:106px;text-overflow:clip;" text-anchor="middle" transform="translate(0,0)" y="534" opacity="1"><tspan>Jan '18</tspan></text></g><g class="highcharts-axis-labels highcharts-yaxis-labels" ><text x="71" style="color:#606060;cursor:default;font-size:11px;fill:#606060;width:188px;text-overflow:clip;" text-anchor="end" transform="translate(0,0)" y="520" opacity="1"><tspan>0 k</tspan></text><text x="71" style="color:#606060;cursor:default;font-size:11px;fill:#606060;width:188px;text-overflow:clip;" text-anchor="end" transform="translate(0,0)" y="447" opacity="1"><tspan>250 k</tspan></text><text x="71" style="color:#606060;cursor:default;font-size:11px;fill:#606060;width:188px;text-overflow:clip;" text-anchor="end" transform="translate(0,0)" y="373" opacity="1"><tspan>500 k</tspan></text><text x="71" style="color:#606060;cursor:default;font-size:11px;fill:#606060;width:188px;text-overflow:clip;" text-anchor="end" transform="translate(0,0)" y="300" opacity="1"><tspan>750 k</tspan></text><text x="71" style="color:#606060;cursor:default;font-size:11px;fill:#606060;width:188px;text-overflow:clip;" text-anchor="end" transform="translate(0,0)" y="226" opacity="1"><tspan>1 000 k</tspan></text><text x="71" style="color:#606060;cursor:default;font-size:11px;fill:#606060;width:188px;text-overflow:clip;" text-anchor="end" transform="translate(0,0)" y="153" opacity="1"><tspan>1 250 k</tspan></text><text x="71" style="color:#606060;cursor:default;font-size:11px;fill:#606060;width:188px;text-overflow:clip;" text-anchor="end" transform="translate(0,0)" y="79" opacity="1"><tspan>1 500 k</tspan></text></g><g class="highcharts-tooltip"  style="cursor:default;padding:0;white-space:nowrap;" transform="translate(0,-9999)"><path fill="none" d="M 3 0 L 13 0 C 16 0 16 0 16 3 L 16 13 C 16 16 16 16 13 16 L 3 16 C 0 16 0 16 0 13 L 0 3 C 0 0 0 0 3 0"  stroke="black" stroke-opacity="0.049999999999999996" stroke-width="5" transform="translate(1, 1)"></path><path fill="none" d="M 3 0 L 13 0 C 16 0 16 0 16 3 L 16 13 C 16 16 16 16 13 16 L 3 16 C 0 16 0 16 0 13 L 0 3 C 0 0 0 0 3 0"  stroke="black" stroke-opacity="0.09999999999999999" stroke-width="3" transform="translate(1, 1)"></path><path fill="none" d="M 3 0 L 13 0 C 16 0 16 0 16 3 L 16 13 C 16 16 16 16 13 16 L 3 16 C 0 16 0 16 0 13 L 0 3 C 0 0 0 0 3 0"  stroke="black" stroke-opacity="0.15" stroke-width="1" transform="translate(1, 1)"></path><path fill="rgb(249, 249, 249)" fill-opacity=" .85" d="M 3 0 L 13 0 C 16 0 16 0 16 3 L 16 13 C 16 16 16 16 13 16 L 3 16 C 0 16 0 16 0 13 L 0 3 C 0 0 0 0 3 0"></path><text x="8"  style="font-size:12px;color:#333333;fill:#333333;" transform="translate(0,20)"></text></g></svg>