<?xml version="1.0" encoding="UTF-8" standalone="no"?>
<!-- Created with Inkscape (http://www.inkscape.org/) -->
<svg
   xmlns:svg="http://www.w3.org/2000/svg"
   xmlns="http://www.w3.org/2000/svg"
   xmlns:xlink="http://www.w3.org/1999/xlink"
   version="1.0"
   width="294"
   height="398"
   viewBox="-9.609 -8.435 294 398"
   id="svg2"
   xml:space="preserve">
<defs
   id="defs4"><linearGradient
     id="linearGradient3311"><stop
       style="stop-color:#51c6ff;stop-opacity:1"
       offset="0"
       id="stop3313" /><stop
       style="stop-color:#003cff;stop-opacity:1"
       offset="1"
       id="stop3315" /></linearGradient><radialGradient
     cx="165.70784"
     cy="243.62108"
     r="19.941999"
     fx="165.70784"
     fy="243.62108"
     id="radialGradient3485"
     xlink:href="#linearGradient3311"
     gradientUnits="userSpaceOnUse" /><radialGradient
     cx="164.96135"
     cy="242.12808"
     r="19.941999"
     fx="164.96135"
     fy="242.12808"
     id="radialGradient3497"
     xlink:href="#linearGradient3311"
     gradientUnits="userSpaceOnUse" /></defs>
<g
   id="g6">
	<g
   id="g8">
		<line
   fill="none"
   x1="1.4529999"
   y1="23.698999"
   x2="265.39099"
   y2="23.698999"
   id="line10"
   style="fill:none" />
		<path
   d="M 1.312,25.192 C 45.968,25.192 90.624,25.192 135.28,25.192 C 178.603,25.192 221.926,25.192 265.249,25.192 C 267.17,25.192 267.465,22.205 265.532,22.205 C 220.876,22.205 176.219,22.205 131.564,22.205 C 88.241,22.205 44.918,22.205 1.595,22.205 C -0.326,22.205 -0.621,25.192 1.312,25.192 L 1.312,25.192 z "
   id="path12" />
	</g>
</g>
<line
   fill="none"
   stroke="#000000"
   stroke-dasharray="8"
   x1="124.903"
   y1="23.698999"
   x2="124.903"
   y2="142.521"
   id="line14"
   style="fill:none;stroke:#000000;stroke-dasharray:8" />
<line
   fill="none"
   stroke="#000000"
   stroke-dasharray="8"
   x1="158.054"
   y1="251.011"
   x2="158.054"
   y2="369.83301"
   id="line16"
   style="fill:none;stroke:#000000;stroke-dasharray:8" />
<g
   id="g18">
	<g
   id="g20">
		<line
   fill="none"
   x1="124.903"
   y1="23.698999"
   x2="158.054"
   y2="251.011"
   id="line22"
   style="fill:none" />
		<path
   d="M 123.426,23.959 C 130.26,70.828 137.096,117.696 143.931,164.564 C 148.146,193.466 152.361,222.369 156.576,251.272 C 156.855,253.188 159.809,252.662 159.531,250.751 C 152.696,203.883 145.86,157.015 139.025,110.147 C 134.81,81.245 130.595,52.342 126.38,23.439 C 126.101,21.522 123.147,22.048 123.426,23.959 L 123.426,23.959 z "
   id="path24" />
	</g>
</g>
<g
   id="g26">
	<g
   id="g28">
		<line
   fill="none"
   x1="158.054"
   y1="251.011"
   x2="214.882"
   y2="361.22299"
   id="line30"
   style="fill:none" />
		<path
   d="M 156.698,251.655 C 175.641,288.392 194.584,325.13 213.526,361.867 C 214.41,363.581 217.126,362.304 216.237,360.58 C 197.294,323.843 178.351,287.105 159.409,250.368 C 158.525,248.654 155.81,249.931 156.698,251.655 L 156.698,251.655 z "
   id="path32" />
	</g>
</g>
<circle
   cx="158.054"
   cy="251.011"
   r="18.941999"
   style="fill:url(#radialGradient3485);fill-opacity:1;stroke:none;stroke-width:2"
   id="circle1" />
<circle
   cx="158.054"
   cy="251.011"
   r="18.941999"
   transform="translate(56.733597,109.73472)"
   style="fill:url(#radialGradient3497);fill-opacity:1;stroke:none;stroke-width:2"
   id="circle2" />
<text
   transform="translate(148.6094,142.522)"
   style="font-size:38px;font-family:TimesNewRomanPS-ItalicMT"
   id="text38">L</text>

<text
   transform="translate(168.2744,152.1318)"
   style="font-size:27.99720001px;font-family:TimesNewRomanPSMT"
   id="text40">1</text>

<text
   transform="translate(192.6094,303.522)"
   style="font-size:38px;font-family:TimesNewRomanPS-ItalicMT"
   id="text42">L</text>

<text
   transform="translate(213.2744,311.1313)"
   style="font-size:27.99720001px;font-family:TimesNewRomanPSMT"
   id="text44">2</text>

<g
   id="g46">
	<g
   id="g48">
		<line
   fill="none"
   x1="54.036999"
   y1="23.698999"
   x2="76.169998"
   y2="1.5650001"
   id="line50"
   style="fill:none" />
		<path
   d="M 55.007,24.843 C 62.384,17.465 69.762,10.087 77.14,2.709 C 78.496,1.352 76.571,-0.951 75.199,0.421 C 67.822,7.799 60.444,15.177 53.066,22.555 C 51.709,23.912 53.635,26.214 55.007,24.843 L 55.007,24.843 z "
   id="path52" />
	</g>
</g>
<g
   id="g54">
	<g
   id="g56">
		<line
   fill="none"
   x1="29.492001"
   y1="23.698999"
   x2="51.625"
   y2="1.5650001"
   id="line58"
   style="fill:none" />
		<path
   d="M 30.463,24.843 C 37.84,17.465 45.218,10.087 52.596,2.709 C 53.952,1.352 52.027,-0.951 50.655,0.421 C 43.278,7.799 35.9,15.177 28.522,22.555 C 27.165,23.912 29.091,26.214 30.463,24.843 L 30.463,24.843 z "
   id="path60" />
	</g>
</g>
<g
   id="g62">
	<g
   id="g64">
		<line
   fill="none"
   x1="4.948"
   y1="23.698999"
   x2="27.082001"
   y2="1.5650001"
   id="line66"
   style="fill:none" />
		<path
   d="M 5.918,24.843 C 13.296,17.465 20.674,10.087 28.052,2.709 C 29.408,1.352 27.483,-0.951 26.111,0.421 C 18.733,7.799 11.355,15.177 3.977,22.555 C 2.621,23.912 4.546,26.214 5.918,24.843 L 5.918,24.843 z "
   id="path68" />
	</g>
</g>
<g
   id="g70">
	<g
   id="g72">
		<line
   fill="none"
   x1="78.581001"
   y1="23.698999"
   x2="100.714"
   y2="1.5650001"
   id="line74"
   style="fill:none" />
		<path
   d="M 79.551,24.843 C 86.929,17.465 94.307,10.087 101.685,2.709 C 103.041,1.352 101.116,-0.951 99.744,0.421 C 92.366,7.799 84.988,15.177 77.61,22.555 C 76.253,23.912 78.179,26.214 79.551,24.843 L 79.551,24.843 z "
   id="path76" />
	</g>
</g>
<g
   id="g78">
	<g
   id="g80">
		<line
   fill="none"
   x1="103.125"
   y1="23.698999"
   x2="125.259"
   y2="1.5650001"
   id="line82"
   style="fill:none" />
		<path
   d="M 104.096,24.843 C 111.474,17.465 118.852,10.087 126.23,2.709 C 127.586,1.352 125.661,-0.951 124.289,0.421 C 116.911,7.799 109.533,15.177 102.155,22.555 C 100.798,23.912 102.724,26.214 104.096,24.843 L 104.096,24.843 z "
   id="path84" />
	</g>
</g>
<g
   id="g86">
	<g
   id="g88">
		<line
   fill="none"
   x1="127.67"
   y1="23.698999"
   x2="149.80299"
   y2="1.5650001"
   id="line90"
   style="fill:none" />
		<path
   d="M 128.641,24.843 C 136.018,17.465 143.396,10.087 150.774,2.709 C 152.13,1.352 150.205,-0.951 148.833,0.421 C 141.456,7.799 134.078,15.177 126.7,22.555 C 125.343,23.912 127.269,26.214 128.641,24.843 L 128.641,24.843 z "
   id="path92" />
	</g>
</g>
<g
   id="g94">
	<g
   id="g96">
		<line
   fill="none"
   x1="152.214"
   y1="23.698999"
   x2="174.34801"
   y2="1.5650001"
   id="line98"
   style="fill:none" />
		<path
   d="M 153.185,24.843 C 160.563,17.465 167.941,10.087 175.319,2.709 C 176.675,1.352 174.75,-0.951 173.378,0.421 C 166,7.799 158.622,15.177 151.244,22.555 C 149.887,23.912 151.813,26.214 153.185,24.843 L 153.185,24.843 z "
   id="path100" />
	</g>
</g>
<g
   id="g102">
	<g
   id="g104">
		<line
   fill="none"
   x1="176.758"
   y1="23.698999"
   x2="198.892"
   y2="1.5650001"
   id="line106"
   style="fill:none" />
		<path
   d="M 177.729,24.843 C 185.107,17.465 192.485,10.087 199.863,2.709 C 201.219,1.352 199.294,-0.951 197.922,0.421 C 190.544,7.799 183.166,15.177 175.788,22.555 C 174.431,23.912 176.356,26.214 177.729,24.843 L 177.729,24.843 z "
   id="path108" />
	</g>
</g>
<g
   id="g110">
	<g
   id="g112">
		<line
   fill="none"
   x1="201.302"
   y1="23.698999"
   x2="223.436"
   y2="1.5650001"
   id="line114"
   style="fill:none" />
		<path
   d="M 202.272,24.843 C 209.65,17.465 217.028,10.087 224.406,2.709 C 225.762,1.352 223.837,-0.951 222.465,0.421 C 215.087,7.799 207.709,15.177 200.331,22.555 C 198.975,23.912 200.9,26.214 202.272,24.843 L 202.272,24.843 z "
   id="path116" />
	</g>
</g>
<g
   id="g118">
	<g
   id="g120">
		<line
   fill="none"
   x1="225.847"
   y1="23.698999"
   x2="247.98"
   y2="1.5650001"
   id="line122"
   style="fill:none" />
		<path
   d="M 226.817,24.843 C 234.195,17.465 241.573,10.087 248.951,2.709 C 250.307,1.352 248.382,-0.951 247.01,0.421 C 239.632,7.799 232.254,15.177 224.876,22.555 C 223.52,23.912 225.445,26.214 226.817,24.843 L 226.817,24.843 z "
   id="path124" />
	</g>
</g>
<g
   id="g126">
	<g
   id="g128">
		<line
   fill="none"
   x1="250.39101"
   y1="23.698999"
   x2="272.52399"
   y2="1.5650001"
   id="line130"
   style="fill:none" />
		<path
   d="M 251.361,24.843 C 258.739,17.465 266.117,10.087 273.495,2.709 C 274.851,1.352 272.926,-0.951 271.554,0.421 C 264.176,7.799 256.798,15.177 249.42,22.555 C 248.063,23.912 249.989,26.214 251.361,24.843 L 251.361,24.843 z "
   id="path132" />
	</g>
</g>
<path
   d="M 118.913,305.313 C 118.913,302.169 119.551,299.749 120.827,298.048 C 121.792,296.772 122.949,296.133 124.297,296.133 C 125.605,296.133 126.722,296.747 127.647,297.977 C 128.939,299.692 129.585,302.026 129.585,304.978 C 129.585,307.787 128.951,310.005 127.683,311.633 C 126.694,312.893 125.53,313.524 124.19,313.524 C 123.464,313.524 122.802,313.348 122.204,312.998 C 121.606,312.646 121.075,312.14 120.613,311.477 C 120.151,310.814 119.795,310.113 119.548,309.371 C 119.124,308.094 118.913,306.742 118.913,305.313 z M 127.288,304.461 C 127.28,302.381 127.08,300.711 126.688,299.452 C 126.384,298.488 125.98,297.799 125.476,297.384 C 125.108,297.081 124.684,296.93 124.205,296.93 C 123.661,296.93 123.161,297.141 122.705,297.564 C 122.249,297.986 121.903,298.692 121.667,299.68 C 121.431,300.668 121.273,302.262 121.193,304.461 L 127.288,304.461 z M 121.194,305.258 C 121.226,306.678 121.334,307.953 121.517,309.086 C 121.653,309.947 121.889,310.697 122.224,311.335 C 122.424,311.718 122.715,312.043 123.099,312.311 C 123.482,312.578 123.893,312.711 124.333,312.711 C 124.844,312.711 125.329,312.472 125.789,311.993 C 126.248,311.514 126.596,310.745 126.832,309.684 C 127.067,308.622 127.209,307.148 127.257,305.257 L 121.194,305.257 L 121.194,305.258 z "
   id="path134" />
<g
   id="g136">
	<g
   id="g138">
		<path
   d="M 187.54,325.967 C 180.407,328.776 172.777,330.595 164.819,331.257"
   style="fill:none;stroke:#000000"
   id="path140" />
		<polygon
   points="157.783,331.842 167.362,326.967 165.346,331.213 168.036,335.068 157.783,331.842 "
   id="polygon142" />
		<polygon
   points="194.109,323.38 186.341,330.808 187.049,326.161 183.362,323.245 194.109,323.38 "
   id="polygon144" />
	</g>
</g>
<text
   transform="translate(130.1094,321.3218)"
   style="font-size:18.3885994px;font-family:TimesNewRomanPSMT"
   id="text146">2</text>

<path
   d="M 95.417,96.91 C 95.417,93.766 96.055,91.345 97.332,89.645 C 98.297,88.368 99.453,87.73 100.801,87.73 C 102.109,87.73 103.225,88.345 104.151,89.573 C 105.443,91.289 106.089,93.623 106.089,96.575 C 106.089,99.384 105.455,101.601 104.187,103.229 C 103.198,104.49 102.033,105.12 100.693,105.12 C 99.967,105.12 99.305,104.945 98.707,104.593 C 98.109,104.242 97.579,103.736 97.116,103.073 C 96.653,102.41 96.299,101.709 96.052,100.967 C 95.628,99.69 95.417,98.338 95.417,96.91 z M 103.792,96.058 C 103.784,93.978 103.584,92.308 103.192,91.049 C 102.888,90.085 102.484,89.395 101.981,88.981 C 101.613,88.678 101.189,88.526 100.71,88.526 C 100.166,88.526 99.666,88.737 99.21,89.159 C 98.754,89.582 98.408,90.287 98.172,91.275 C 97.936,92.263 97.778,93.857 97.698,96.057 L 103.792,96.057 L 103.792,96.058 z M 97.698,96.854 C 97.73,98.273 97.838,99.55 98.022,100.683 C 98.158,101.544 98.393,102.294 98.729,102.932 C 98.929,103.315 99.22,103.64 99.604,103.907 C 99.988,104.175 100.399,104.308 100.838,104.308 C 101.349,104.308 101.834,104.069 102.294,103.59 C 102.754,103.111 103.101,102.342 103.336,101.281 C 103.571,100.22 103.713,98.745 103.761,96.855 L 97.698,96.855 L 97.698,96.854 z "
   id="path148" />
<text
   transform="translate(106.6128,112.918)"
   style="font-size:18.3885994px;font-family:TimesNewRomanPSMT"
   id="text150">1</text>

<line
   fill="none"
   stroke="#000000"
   x1="141.347"
   y1="305.99799"
   x2="176.181"
   y2="328.612"
   id="line152"
   style="fill:none;stroke:#000000" />
<g
   id="g154">
	<g
   id="g156">
		<path
   d="M 132.152,117.004 C 132.152,112.269 117.035,95.55 112.742,95.55"
   style="fill:none;stroke:#000000"
   id="path158" />
		<polygon
   points="132.152,124.065 128.087,114.115 132.152,116.476 136.217,114.115 132.152,124.065 "
   id="polygon160" />
	</g>
</g>
<text
   transform="translate(179.3906,256.5649)"
   style="font-size:27.99720001px;font-family:TimesNewRomanPSMT"
   id="text162">m</text>

<text
   transform="translate(202.3906,263.5649)"
   style="font-size:18px;font-family:TimesNewRomanPSMT"
   id="text164">1</text>

<text
   transform="translate(237.3906,367.5649)"
   style="font-size:27.99720001px;font-family:TimesNewRomanPSMT"
   id="text166">m</text>

<text
   transform="translate(260.3906,374.5649)"
   style="font-size:18px;font-family:TimesNewRomanPSMT"
   id="text168">2</text>

</svg>