<?xml version="1.0" encoding="UTF-8" standalone="no"?>
<!-- Created with Inkscape (http://www.inkscape.org/) -->

<svg
   xmlns:dc="http://purl.org/dc/elements/1.1/"
   xmlns:cc="http://creativecommons.org/ns#"
   xmlns:rdf="http://www.w3.org/1999/02/22-rdf-syntax-ns#"
   xmlns:svg="http://www.w3.org/2000/svg"
   xmlns="http://www.w3.org/2000/svg"
   xmlns:sodipodi="http://sodipodi.sourceforge.net/DTD/sodipodi-0.dtd"
   xmlns:inkscape="http://www.inkscape.org/namespaces/inkscape"
   width="725"
   height="500"
   viewBox="0 0 724.99997 499.99998"
   id="svg2"
   version="1.1"
   inkscape:version="0.92.3 (2405546, 2018-03-11)"
   sodipodi:docname="logo-datawookie.svg">
  <defs
     id="defs4">
    <inkscape:path-effect
       effect="spiro"
       id="path-effect7804"
       is_visible="true" />
    <inkscape:path-effect
       effect="spiro"
       id="path-effect7695"
       is_visible="true" />
    <inkscape:path-effect
       effect="spiro"
       id="path-effect7681"
       is_visible="true" />
    <inkscape:path-effect
       effect="spiro"
       id="path-effect7618"
       is_visible="true" />
    <inkscape:path-effect
       effect="spiro"
       id="path-effect7535"
       is_visible="true" />
    <inkscape:path-effect
       effect="spiro"
       id="path-effect7531"
       is_visible="true" />
    <marker
       inkscape:stockid="Arrow1Lstart"
       orient="auto"
       refY="0"
       refX="0"
       id="Arrow1Lstart"
       style="overflow:visible"
       inkscape:isstock="true">
      <path
         id="path7034"
         d="M 0,0 5,-5 -12.5,0 5,5 Z"
         style="fill-rule:evenodd;stroke:#000000;stroke-width:1.00000003pt"
         transform="matrix(0.8,0,0,0.8,10,0)"
         inkscape:connector-curvature="0" />
    </marker>
    <inkscape:path-effect
       effect="spiro"
       id="path-effect6819"
       is_visible="true" />
    <inkscape:path-effect
       effect="spiro"
       id="path-effect6798"
       is_visible="true" />
    <inkscape:path-effect
       effect="spiro"
       id="path-effect6794"
       is_visible="true" />
    <inkscape:path-effect
       effect="spiro"
       id="path-effect6423"
       is_visible="true" />
    <inkscape:path-effect
       effect="spiro"
       id="path-effect6418"
       is_visible="true" />
    <inkscape:path-effect
       effect="spiro"
       id="path-effect6381"
       is_visible="true" />
    <inkscape:path-effect
       effect="spiro"
       id="path-effect6376"
       is_visible="true" />
    <inkscape:path-effect
       effect="spiro"
       id="path-effect6371"
       is_visible="true" />
    <inkscape:path-effect
       effect="spiro"
       id="path-effect6348"
       is_visible="true" />
    <inkscape:path-effect
       effect="spiro"
       id="path-effect6344"
       is_visible="true" />
    <inkscape:path-effect
       effect="spiro"
       id="path-effect6339"
       is_visible="true" />
    <inkscape:path-effect
       effect="spiro"
       id="path-effect6335"
       is_visible="true" />
    <inkscape:path-effect
       effect="spiro"
       id="path-effect6326"
       is_visible="true" />
    <inkscape:path-effect
       effect="spiro"
       id="path-effect6321"
       is_visible="true" />
    <inkscape:path-effect
       effect="spiro"
       id="path-effect6316"
       is_visible="true" />
    <inkscape:path-effect
       effect="spiro"
       id="path-effect6274"
       is_visible="true" />
    <inkscape:path-effect
       effect="spiro"
       id="path-effect6269"
       is_visible="true" />
    <inkscape:path-effect
       effect="spiro"
       id="path-effect6221"
       is_visible="true" />
    <inkscape:path-effect
       effect="spiro"
       id="path-effect6217"
       is_visible="true" />
    <inkscape:path-effect
       effect="spiro"
       id="path-effect6197"
       is_visible="true" />
    <inkscape:path-effect
       effect="spiro"
       id="path-effect6178"
       is_visible="true" />
    <inkscape:path-effect
       effect="spiro"
       id="path-effect6174"
       is_visible="true" />
    <inkscape:path-effect
       effect="spiro"
       id="path-effect6164"
       is_visible="true" />
    <inkscape:path-effect
       effect="spiro"
       id="path-effect6131"
       is_visible="true" />
    <inkscape:path-effect
       effect="spiro"
       id="path-effect4387"
       is_visible="true" />
    <inkscape:path-effect
       effect="spiro"
       id="path-effect4344"
       is_visible="true" />
    <inkscape:path-effect
       effect="spiro"
       id="path-effect4299"
       is_visible="true" />
    <inkscape:path-effect
       effect="spiro"
       id="path-effect4295"
       is_visible="true" />
    <inkscape:path-effect
       effect="spiro"
       id="path-effect4244"
       is_visible="true" />
    <inkscape:path-effect
       effect="spiro"
       id="path-effect4239"
       is_visible="true" />
    <inkscape:path-effect
       effect="spiro"
       id="path-effect4234"
       is_visible="true" />
    <inkscape:path-effect
       effect="spiro"
       id="path-effect4299-7"
       is_visible="true" />
    <inkscape:path-effect
       effect="spiro"
       id="path-effect7804-7"
       is_visible="true" />
    <inkscape:path-effect
       effect="spiro"
       id="path-effect7804-9"
       is_visible="true" />
    <inkscape:path-effect
       effect="spiro"
       id="path-effect7804-7-7"
       is_visible="true" />
    <inkscape:path-effect
       effect="spiro"
       id="path-effect6221-3"
       is_visible="true" />
    <inkscape:path-effect
       effect="spiro"
       id="path-effect6798-6"
       is_visible="true" />
    <inkscape:path-effect
       effect="spiro"
       id="path-effect7681-1"
       is_visible="true" />
  </defs>
  <sodipodi:namedview
     id="base"
     pagecolor="#ffffff"
     bordercolor="#666666"
     borderopacity="1.0"
     inkscape:pageopacity="0.0"
     inkscape:pageshadow="2"
     inkscape:zoom="0.5"
     inkscape:cx="-94.99094"
     inkscape:cy="202.44147"
     inkscape:document-units="px"
     inkscape:current-layer="layer1"
     showgrid="false"
     inkscape:window-width="1883"
     inkscape:window-height="1025"
     inkscape:window-x="37"
     inkscape:window-y="27"
     inkscape:window-maximized="1"
     units="px"
     showguides="false" />
  <metadata
     id="metadata7">
    <rdf:RDF>
      <cc:Work
         rdf:about="">
        <dc:format>image/svg+xml</dc:format>
        <dc:type
           rdf:resource="http://purl.org/dc/dcmitype/StillImage" />
        <dc:title></dc:title>
      </cc:Work>
    </rdf:RDF>
  </metadata>
  <g
     inkscape:label="Layer 1"
     inkscape:groupmode="layer"
     id="layer1"
     transform="translate(0,-552.36241)">
    <path
       style="fill:none;stroke:none;stroke-width:0.83656067;stroke-miterlimit:4;stroke-dasharray:none;stroke-opacity:1"
       id="path3411-5"
       sodipodi:type="arc"
       sodipodi:cx="273.638"
       sodipodi:cy="-74.776962"
       sodipodi:rx="261.72397"
       sodipodi:ry="261.72397"
       sodipodi:start="0"
       sodipodi:end="6.2804837"
       sodipodi:open="true"
       d="M 535.36197,-74.776962 A 261.72397,261.72397 0 0 1 273.81477,186.94695 261.72397,261.72397 0 0 1 11.914271,-74.423425 261.72397,261.72397 0 0 1 273.10769,-336.50039 261.72397,261.72397 0 0 1 535.36101,-75.484037"
       transform="rotate(-104.36187)" />
    <g
       id="g3832"
       transform="translate(0,122.5)">
      <path
         inkscape:connector-curvature="0"
         id="path7663"
         d="m 181.98354,798.3715 c -6.85143,0.084 -13.71905,-0.15556 -20.5605,0.23258 -4.34982,0.80602 -8.15483,4.36713 -8.75645,8.57376 -0.3559,10.85193 -0.13242,21.71558 -0.20577,32.57209 0.0575,16.74115 -0.13183,33.48526 0.14942,50.22447 0.0552,5.50153 5.80384,10.01395 11.45803,9.6877 18.84839,0.14932 37.70061,0.0616 56.54769,0.0396 4.33015,-1.02501 8.37716,-4.26029 9.06516,-8.5985 0.37284,-10.73113 0.15546,-21.47521 0.231,-32.21146 -0.056,-16.99597 0.13461,-33.99523 -0.17137,-50.989 -0.10653,-4.53055 -4.19322,-8.26594 -8.65128,-9.31518 -2.3374,-0.4991 -4.82069,-0.0793 -7.21514,-0.2176 -10.63027,3e-4 -21.26051,-7.4e-4 -31.89079,10e-4 z"
         style="opacity:1;fill:#4d4d4d;fill-opacity:1;stroke:none;stroke-width:12;stroke-linecap:round;stroke-linejoin:miter;stroke-miterlimit:4;stroke-dasharray:none;stroke-dashoffset:0;stroke-opacity:1" />
      <path
         sodipodi:nodetypes="ccccccccc"
         inkscape:connector-curvature="0"
         id="path5139"
         d="m 230.16168,748.11417 c -17.77221,12.31164 -30.86944,25.81006 -38.31287,43.26442 -0.29722,1.14533 -3.13125,3.291 -2.31018,4.31761 10.14115,0.76713 21.2732,-0.80353 31.36621,0.42871 4.09509,1.30486 8.24723,6.85761 9.63965,10.93067 1.38148,-0.73739 -0.45585,-5.89141 0.042,-7.30371 0.0602,-17.21336 0.23731,-34.51028 -0.042,-51.6709 l -0.27539,-0.0352 z"
         style="opacity:1;fill:#a96636;fill-opacity:1;stroke:none;stroke-width:8;stroke-linecap:butt;stroke-linejoin:miter;stroke-miterlimit:4;stroke-dasharray:none;stroke-dashoffset:0;stroke-opacity:1" />
      <path
         inkscape:connector-curvature="0"
         id="path7802"
         d="M 502.52715,865.16258 H 724.57519"
         style="fill:#333333;fill-rule:evenodd;stroke:#333333;stroke-width:7.5896349;stroke-linecap:butt;stroke-linejoin:miter;stroke-miterlimit:4;stroke-dasharray:none;stroke-opacity:1" />
      <path
         inkscape:connector-curvature="0"
         id="path7802-5"
         d="M 0.424812,865.16258 H 153.85383"
         style="fill:none;fill-rule:evenodd;stroke:#333333;stroke-width:8.93942165;stroke-linecap:butt;stroke-linejoin:miter;stroke-miterlimit:4;stroke-dasharray:none;stroke-opacity:1" />
      <path
         sodipodi:nodetypes="cc"
         inkscape:connector-curvature="0"
         id="path7529"
         d="m 264.25619,714.68439 c -28.69462,24.6763 -69.43325,60.22711 -77.48747,81.38827"
         style="fill:none;fill-rule:evenodd;stroke:#000000;stroke-width:5.17627859;stroke-linecap:butt;stroke-linejoin:miter;stroke-miterlimit:4;stroke-dasharray:none;stroke-opacity:1" />
      <path
         inkscape:connector-curvature="0"
         id="path6219"
         d="m 374.09291,567.08159 23.90324,-0.74699"
         style="fill:#ff0000;fill-rule:evenodd;stroke:#000000;stroke-width:0;stroke-linecap:butt;stroke-linejoin:miter;stroke-miterlimit:4;stroke-dasharray:none;stroke-opacity:1" />
      <path
         sodipodi:nodetypes="cccccccc"
         inkscape:connector-curvature="0"
         id="path6337"
         d="m 287.78756,732.43615 c -0.89487,-4.50422 -3.23067,-10.26005 2.75488,-0.96619 l 5.1506,17.16868 c -0.10106,2.23554 -0.3103,4.17054 -2.45267,0.7358 l -1.47159,-7.11274 c -0.63457,-0.3622 -1.13774,-1.51262 -2.20741,0.7358 l -0.24526,4.90534 c -1.99393,-3.52663 -1.73423,-9.74047 -1.52855,-15.46669 z"
         style="fill:#000000;fill-rule:evenodd;stroke:#000000;stroke-width:0.48560369px;stroke-linecap:butt;stroke-linejoin:miter;stroke-opacity:1" />
      <path
         inkscape:connector-curvature="0"
         id="path6796"
         d="m 445.99842,813.88548 -1.02125,3.26802 3.16589,-1.634 z"
         style="fill:#000000;fill-rule:evenodd;stroke:#000000;stroke-width:0.73946834px;stroke-linecap:butt;stroke-linejoin:miter;stroke-opacity:1" />
      <path
         sodipodi:nodetypes="ccccc"
         inkscape:connector-curvature="0"
         id="path6792"
         d="m 285.66122,798.36239 c 2.44566,6.40346 2.67483,12.12493 2.65527,17.76985 l 4.49352,2.04251 -4.78239,-23.63119 z"
         style="fill:#000000;fill-rule:evenodd;stroke:#000000;stroke-width:0.73946834px;stroke-linecap:butt;stroke-linejoin:miter;stroke-opacity:1" />
      <path
         inkscape:connector-curvature="0"
         id="rect7405"
         d="m 249.5738,719.63885 h 236.14335 c 9.68099,0 17.47471,7.79373 17.47471,17.47472 v 136.67392 c 0,9.681 -7.79372,17.47472 -17.47471,17.47472 H 249.5738 c -9.68099,0 -17.47471,-7.79372 -17.47471,-17.47472 V 737.11357 c 0,-9.68099 7.79372,-17.47472 17.47471,-17.47472 z"
         style="opacity:1;fill:#ffffff;fill-opacity:1;stroke:#000000;stroke-width:3.33943868;stroke-linecap:round;stroke-linejoin:round;stroke-miterlimit:4;stroke-dasharray:none;stroke-dashoffset:0;stroke-opacity:1" />
      <path
         inkscape:connector-curvature="0"
         id="path7446"
         d="m 388.15417,805.4505 a 20.508694,20.508694 0 0 1 -20.50869,20.50869 20.508694,20.508694 0 0 1 -20.5087,-20.50869 20.508694,20.508694 0 0 1 20.5087,-20.50869 20.508694,20.508694 0 0 1 20.50869,20.50869 z"
         style="opacity:1;fill:#ffffff;fill-opacity:1;stroke:#000000;stroke-width:3.69734192;stroke-linecap:round;stroke-linejoin:round;stroke-miterlimit:4;stroke-dasharray:none;stroke-dashoffset:0;stroke-opacity:1" />
      <path
         inkscape:connector-curvature="0"
         id="rect7614"
         d="m 164.89951,796.98212 h 52.20432 c 6.73273,0 12.15294,5.42021 12.15294,12.15294 v 79.8111 c 0,6.73273 -5.42021,12.15295 -12.15294,12.15295 h -52.20432 c -6.73273,0 -12.15294,-5.42022 -12.15294,-12.15295 v -79.8111 c 0,-6.73273 5.42021,-12.15294 12.15294,-12.15294 z"
         style="opacity:1;fill:none;fill-opacity:1;stroke:#000000;stroke-width:3.02885771;stroke-linecap:round;stroke-linejoin:miter;stroke-miterlimit:4;stroke-dasharray:none;stroke-dashoffset:0;stroke-opacity:1" />
      <path
         sodipodi:nodetypes="cc"
         inkscape:connector-curvature="0"
         id="path7616"
         d="m 229.13053,818.48364 c 31.98928,11.17152 30.21043,43.22782 0.5777,53.72699"
         style="fill:none;fill-rule:evenodd;stroke:#000000;stroke-width:8.87362099;stroke-linecap:butt;stroke-linejoin:miter;stroke-miterlimit:4;stroke-dasharray:none;stroke-opacity:1" />
      <path
         inkscape:connector-curvature="0"
         id="path7659"
         d="m 366.49008,786.42604 c -3.78605,-0.0258 -7.43305,1.5044 -10.54935,3.5412 -5.28,3.71262 -8.49318,10.10279 -8.24422,16.52942 0.12894,5.16121 2.44315,10.24041 6.34264,13.67412 4.17652,4.07722 10.34441,5.84616 16.10221,5.03501 7.18496,-0.9502 13.55052,-6.20023 15.83255,-13.0287 1.16302,-3.18015 1.2276,-6.66549 0.7283,-9.98041 -1.33707,-6.86556 -6.59857,-12.82136 -13.33514,-14.91308 -2.21242,-0.793 -4.54736,-0.90376 -6.87699,-0.85756 z"
         style="opacity:1;fill:#000000;fill-opacity:1;stroke:none;stroke-width:12;stroke-linecap:round;stroke-linejoin:miter;stroke-miterlimit:4;stroke-dasharray:none;stroke-dashoffset:0;stroke-opacity:1" />
      <path
         inkscape:connector-curvature="0"
         id="path7679"
         d="m 171.07629,814.49824 0.81701,88.50758"
         style="fill:#ffffff;fill-rule:evenodd;stroke:#ffffff;stroke-width:8.87362099;stroke-linecap:round;stroke-linejoin:miter;stroke-miterlimit:4;stroke-dasharray:53.24172273, 53.24172273;stroke-dashoffset:0;stroke-opacity:1" />
      <path
         inkscape:connector-curvature="0"
         id="path7704"
         d="m 229.89508,749.03334 c -9.3718,8.14351 -17.99105,17.24864 -26.23036,26.55515 -4.72129,5.87023 -9.92822,11.71306 -13.03924,18.59646 0.87424,2.2233 4.37202,1.0235 6.22611,1.43043 8.22235,0.35877 16.61402,-0.74353 24.72649,0.73825 3.34973,1.21017 6.42382,3.61445 7.87581,6.91107 1.15185,-1.30087 0.23155,-4.14101 0.64297,-5.90843 0.28717,-16.05084 0.5382,-32.12615 0.10964,-48.16948 -0.0497,-0.13521 -0.1901,-0.18434 -0.31142,-0.15345 z"
         style="opacity:1;fill:#a05a2c;fill-opacity:0;stroke:none;stroke-width:5.46875;stroke-linecap:round;stroke-linejoin:miter;stroke-miterlimit:4;stroke-dasharray:none;stroke-dashoffset:0;stroke-opacity:1" />
      <path
         inkscape:connector-curvature="0"
         id="path7710"
         d="m 363.95757,478.46663 c -12.76844,0.26388 -26.34903,0.94985 -37.34956,8.22996 -9.41866,5.3326 -17.36971,12.72558 -26.01988,19.11813 -15.29137,9.59509 -24.20972,27.04065 -26.30391,44.65251 -2.23575,16.40134 1.73075,32.82957 1.34464,49.27327 0.23009,16.32052 -0.71325,33.08568 -7.49147,48.18347 -2.93984,7.21435 -8.81383,12.70534 -12.79037,19.23481 1.87791,0.40194 3.64047,-2.64626 5.54917,-2.53537 1.0822,1.585 4.55571,4.07392 1.88772,5.79853 -1.4508,2.10669 1.60176,4.3511 2.07952,6.3548 4.5338,8.9086 2.39974,19.29551 2.8525,28.87758 0.24141,3.93558 -0.48596,8.29631 0.44452,12.02247 9.57671,0.97066 19.26647,0.31504 28.88434,0.51904 0.0367,-3.68344 -1.10138,-7.70112 -1.51423,-11.51245 -1.77222,2.45381 -1.07616,7.23699 -3.41097,9.90343 -2.20346,-1.17335 -2.39428,-4.60061 -3.40605,-6.75418 -2.36592,-8.65075 -2.20009,-17.88041 -1.25398,-26.7338 1.20186,-5.23125 2.98145,-10.68703 6.15169,-15.05205 2.1256,-0.44349 0.60107,2.85922 0.5213,3.94017 -2.25659,8.71047 -4.29667,17.90396 -2.87839,26.89848 1.35434,1.11781 2.11389,-2.09968 2.74887,-2.83136 1.96349,-3.30235 3.08555,-7.64269 6.23045,-9.96965 1.37145,3.14987 -0.254,7.01511 -0.0621,10.43714 -0.30286,7.20701 -0.23287,14.64284 0.77968,21.67427 24.56771,0 49.13542,0 73.70312,0 0.81376,-5.47539 -1.63157,-11.79297 0.82934,-17.12143 2.65901,-3.7079 5.29755,-7.89068 8.93869,-10.60413 2.21075,0.4595 -0.17275,3.40056 -0.5935,4.56752 -3.73874,6.10639 -6.94225,13.70017 -4.76949,20.8709 2.62368,-0.69709 3.8544,-4.15677 5.73534,-5.99262 6.07914,-7.90003 13.72437,-14.48857 22.40028,-19.35542 3.20222,-1.63118 5.60037,-5.07026 8.97997,-6.08637 2.39493,1.40309 -0.8892,3.65739 -1.72524,5.05044 -3.95341,3.56058 -5.87189,8.53174 -7.14916,13.57054 -1.12712,1.5657 0.85366,1.80246 1.7794,0.8361 7.51698,-3.96411 14.82719,-9.81911 18.12,-17.86386 0.90099,-4.22697 -2.02942,-8.23605 -2.91832,-12.26103 -1.61607,-4.92137 -3.90294,-9.91459 -4.9541,-14.8744 3.22765,-1.32069 3.63559,3.38433 5.15087,5.09332 3.63161,5.88097 7.9549,11.83551 9.15985,18.76428 -0.39643,6.50126 -4.57079,12.27328 -8.97368,16.81902 -7.47819,7.25126 -17.94078,9.93799 -26.24405,16.04161 -1.99092,1.31865 0.56759,-2.7376 0.44458,-3.48432 1.47833,-4.24598 3.30228,-8.44618 3.99093,-12.92512 -3.38938,1.88892 -6.6458,5.64402 -9.78157,8.51783 -2.91552,3.19734 -6.69545,6.50373 -8.06424,10.43714 26.2211,0 52.44219,0 78.66329,0 -0.32777,-1.33656 -0.98193,-4.16343 -2.31987,-4.9726 -2.24107,1.81519 -5.57079,2.40422 -7.86677,0.25275 -4.31237,-3.06337 -5.80265,-8.48484 -8.86876,-12.46927 -3.13648,-1.07354 -2.26693,-5.76104 0.80564,-6.41461 3.37844,-0.21617 4.74424,4.07498 6.35825,6.3231 1.77167,2.40179 2.50565,6.3784 5.3415,7.692 1.47842,-1.94649 1.99607,-6.17212 5.3788,-5.3867 4.26382,1.49348 3.92019,7.61676 6.15171,10.48905 0.89101,-0.7605 2.66108,-4.65488 3.53959,-1.56961 1.32394,1.39921 3.35897,6.71666 4.34162,5.52267 -1.54389,-12.23563 -4.64576,-24.44822 -9.99142,-35.58962 -0.56884,-1.63659 -3.48964,-4.08618 -0.72531,-5.2387 1.27877,-1.08998 3.87417,-2.91889 4.6307,-0.20987 2.36204,3.2905 3.61782,7.66625 6.43379,10.49243 0.21547,-2.66643 -1.50398,-5.69131 -1.99623,-8.43803 -2.44831,-9.75859 -6.57853,-19.06986 -8.38562,-28.97657 -3.63433,-28.73286 4.93555,-57.07044 6.66899,-85.62946 -0.14495,-16.50589 -6.29475,-32.95484 -16.68705,-45.74433 -4.81401,-5.90903 -10.58727,-10.90709 -16.98076,-15.0117 -13.12495,-11.51558 -28.86561,-21.09237 -46.55511,-22.95894 -9.59443,-1.36667 -19.30035,-1.95781 -28.98953,-1.89119 z m 40.18581,73.42216 c 3.84427,0.23276 8.86553,0.50506 11.17281,4.07217 0.95748,2.22411 -1.86548,2.70397 -3.35118,1.92156 -5.44466,-2.01408 -11.30683,-1.28819 -16.63509,0.69054 -1.56312,1.00337 -3.30389,-0.29479 -2.17094,-1.93058 2.29171,-3.6038 7.00923,-4.79589 10.9844,-4.75369 z m -71.86507,0.11399 c 4.31214,-0.01 10.48145,0.97099 11.85321,5.79967 -0.24654,2.17451 -3.33881,0.32252 -4.5899,0.17798 -5.36518,-2.41227 -11.13595,-0.89275 -16.5958,0.13344 -2.62557,0.43155 -1.69989,-3.24435 0.006,-3.83862 2.71748,-1.85062 6.13642,-2.23201 9.32686,-2.27247 z m 72.86476,21.01419 c 7.03083,-0.15472 12.42261,6.72977 12.40871,13.46608 0.1782,2.97372 1.32473,7.52663 -2.42402,8.78703 -3.74716,-2.75381 -2.67665,-8.33898 -4.95907,-12.06083 -1.03144,-3.00945 -4.92466,-5.44461 -7.57679,-2.79377 -3.90099,3.66956 -1.32912,10.23093 -4.77061,14.03993 -3.10326,1.27271 -4.0424,-3.2065 -3.95371,-5.38782 -0.94124,-6.00623 1.57152,-13.08928 7.62419,-15.34202 1.17586,-0.45221 2.41143,-0.6922 3.6513,-0.7086 z m -72.9539,0.0699 c 6.93958,0.36278 11.7642,7.46003 10.79709,14.03767 -0.34804,2.32044 0.67964,6.5978 -2.27587,7.5531 -3.36396,0.0929 -3.41845,-4.48954 -3.8386,-6.83096 -0.0698,-3.63593 -1.47,-8.49119 -5.81434,-8.7356 -5.41961,1.86073 -5.42487,8.71404 -7.15254,13.20947 -0.2678,1.66396 -2.40274,4.21278 -3.6513,1.76923 -2.52367,-3.14884 -0.97276,-7.60283 -0.39492,-11.20329 1.27629,-5.68982 6.35535,-10.26565 12.33048,-9.79962 z m 36.18246,25.892 c 7.55748,-0.48098 15.46547,4.63716 16.48504,12.49184 1.02603,3.2536 -2.27081,5.71568 -4.54608,7.45269 -4.01488,1.62021 -7.92618,-2.1636 -8.80669,-5.88091 -0.1502,-1.99482 2.91857,-3.02711 3.79235,-0.99858 1.2065,3.80771 6.01118,2.88034 5.05277,-0.79529 -1.42253,-5.1194 -6.54807,-8.24829 -11.73254,-7.85907 -5.33606,0.11266 -12.22848,2.17336 -14.01735,7.79682 -0.66409,2.07111 2.14203,5.73878 3.89614,3.16387 0.64709,-1.94348 3.42092,-5.17103 5.1757,-2.41578 0.92861,4.51878 -4.36108,9.47141 -8.76156,7.36354 -5.8019,-2.37196 -6.00091,-10.59105 -1.63496,-14.48787 3.89239,-4.02 9.63914,-5.80364 15.09718,-5.83126 z m -69.48426,18.28361 c -2.68572,6.83121 -5.1007,13.89416 -5.52548,21.31095 -1.09504,6.64579 -3.52355,13.16609 -6.75198,19.04749 2.11389,-8.71751 3.14332,-17.67922 4.91844,-26.44715 1.37255,-5.00312 3.45553,-10.46005 7.35902,-13.91129 z m 87.23642,26.62091 c 3.09982,0.95689 1.01321,5.21283 -0.55176,6.76439 -4.18257,5.00409 -10.6822,7.47046 -17.12142,6.89641 -2.72091,-0.26353 -7.17476,0.40397 -8.33278,-2.74412 -0.22795,-2.2918 2.11178,-2.83976 3.81379,-2.04568 7.26965,1.88051 16.32446,-0.46643 19.86667,-7.47638 0.56986,-0.70118 1.35445,-1.44202 2.3255,-1.39462 z"
         style="opacity:1;fill:#a05a2c;fill-opacity:0;stroke:none;stroke-width:7;stroke-linecap:round;stroke-linejoin:miter;stroke-miterlimit:4;stroke-dasharray:none;stroke-dashoffset:0;stroke-opacity:1" />
      <g
         id="text7839"
         style="font-style:normal;font-weight:normal;font-size:29.57873535px;line-height:125%;font-family:sans-serif;letter-spacing:0px;word-spacing:0px;fill:#ffffff;fill-opacity:1;stroke:#000000;stroke-width:0.73946834px;stroke-linecap:butt;stroke-linejoin:miter;stroke-opacity:1">
        <path
           inkscape:connector-curvature="0"
           id="path4406"
           style="font-style:normal;font-variant:normal;font-weight:normal;font-stretch:normal;font-size:21.72188377px;font-family:'Star Jedi Rounded';-inkscape-font-specification:'Star Jedi Rounded';fill:#ffffff;stroke:#000000;stroke-width:0.73946834px"
           d="m 350.04031,814.44165 v -10.75488 h -3.18191 v -4.56074 h 12.21856 q 1.8349,0 3.23495,0.48789 1.40004,0.48789 2.36522,1.31519 0.96518,0.8273 1.60156,2.23795 0.64699,1.41065 0.64699,3.66981 -0.11667,2.08946 -0.70002,3.55314 -0.58335,1.46368 -1.54853,2.31219 -0.96518,0.84851 -2.36522,1.31519 -1.38944,0.46669 -3.48951,0.42426 z m 5.11228,-11.51854 v 7.70024 h 2.91676 q 0.98639,0 1.59096,-0.41365 0.60456,-0.42425 0.98639,-1.07124 0.38183,-0.6576 0.4879,-2.35462 -0.0318,-1.54853 -0.43487,-2.28038 -0.39243,-0.74244 -1.01821,-1.15609 -0.62578,-0.42426 -1.63338,-0.42426 z" />
        <path
           inkscape:connector-curvature="0"
           id="path4408"
           style="font-style:normal;font-variant:normal;font-weight:normal;font-stretch:normal;font-size:21.72188377px;font-family:'Star Jedi Rounded';-inkscape-font-specification:'Star Jedi Rounded';fill:#ffffff;stroke:#000000;stroke-width:0.73946834px"
           d="m 377.72299,807.95054 -1.61217,6.49111 h -4.98501 l -3.52132,-10.75488 h -3.18191 v -4.56074 h 7.02143 l 2.10006,6.61838 1.8243,-6.61838 h 4.58196 l 2.13188,6.61838 1.42126,-6.61838 h 4.93197 l -3.78648,15.31562 h -4.985 z" />
      </g>
      <path
         sodipodi:nodetypes="ccccccccc"
         inkscape:connector-curvature="0"
         id="path6195"
         d="m 363.58927,475.1809 c -21.90151,1.96261 -28.12404,-1.12051 -57.09767,22.05843 -3.35872,3.30316 -6.86183,6.38973 -11.20464,8.21674 -19.3319,15.82614 -24.50047,36.12491 -25.0237,57.89063 3.37411,32.15662 5.14456,63.05324 -5.22882,84.40827 -6.68298,15.37426 -42.77701,44.34613 -2.61442,19.04788 -8.80512,6.61948 0.96253,4.21243 2.61442,22.78276 0.85686,11.18535 -3.80269,36.39928 5.97581,42.95112 8.67914,2.66931 3.09596,11.60312 4.48185,17.18044"
         style="fill:none;fill-rule:evenodd;stroke:#000000;stroke-width:5.91574669;stroke-linecap:round;stroke-linejoin:miter;stroke-miterlimit:4;stroke-dasharray:none;stroke-opacity:1" />
      <path
         sodipodi:nodetypes="ccccccccccccccccccccccccccccccccccccccccccccccccccc"
         inkscape:connector-curvature="0"
         id="path5137"
         d="m 363.05816,478.07902 c -8.55138,0.63199 -17.31374,0.85206 -25.58203,3.29394 -13.77614,5.07654 -24.98992,14.9539 -36.25007,23.97206 -15.35076,9.17234 -24.47798,26.39016 -26.83684,43.79454 -1.91257,9.72816 -0.73517,19.61334 0.16992,29.36133 1.06855,20.59689 2.66335,41.80107 -3.57422,61.76953 -2.62059,9.83371 -13.86524,22.25754 -20.1553,30.05076 -1.18734,1.14666 3.31125,-1.14167 4.12432,-2.07648 1.31474,-0.50297 5.07336,-1.54381 6.42262,-1.26897 2.60416,0.62509 1.34481,0.15809 0.38852,1.40724 -3.48051,1.11546 1.06323,4.59018 2.10949,6.61206 5.95067,10.99758 3.58406,23.90198 3.70686,35.85624 0.59671,2.34919 -1.36773,8.88967 2.75798,8.01681 64.56029,-0.0627 130.24785,0.52861 194.80664,0.17871 0.57922,-1.4281 -3.12687,-10.20293 -3.38379,-11.67285 -2.03834,0.77872 -4.60253,4.56328 -6.98242,3.03125 -5.72696,-3.31157 -4.61944,-8.01906 -9.27929,-12.35938 -1.45569,-3.13203 -0.20909,-1.41554 1.85644,1.4707 3.12056,3.92168 5.48321,8.08273 9.17871,11.49903 1.87982,-0.11854 3.27125,-3.60686 4.33692,-4.78321 1.55734,-2.23259 3.34903,-3.21903 4.12988,-0.7998 1.45581,2.61235 0.59949,7.15455 1.93164,9.84375 2.47599,0.88858 5.00141,-2.26047 4.08398,-4.73926 1.80663,2.29112 3.68364,7.31729 5.96289,9.0625 0.89953,-2.04329 -1.2143,-6.46107 -1.30957,-8.66797 -2.20533,-11.44934 -5.16923,-22.98036 -11.31445,-33.01953 2.01519,-0.84795 4.61824,-4.8996 5.92285,-1.38476 2.4842,3.76493 5.70646,13.23809 8.63867,16.67187 1.27721,-0.52379 -2.22795,-7.70944 -2.17256,-8.79512 -2.98512,-11.01477 -6.99303,-21.79816 -9.84404,-32.79765 -2.00605,-11.51156 -1.03463,-23.3985 -0.20019,-34.98731 1.79039,-17.65922 5.54757,-35.10335 6.80176,-52.81738 -0.98948,-21.69169 -10.89963,-43.50267 -28.41895,-56.75 -8.06762,-5.10356 -14.74692,-12.15653 -23.18066,-16.74805 -12.35147,-7.79689 -26.9992,-10.69858 -41.409,-11.3114 -5.8114,-0.29515 -11.62903,-0.73918 -17.43671,-0.9132 z m 5.2002,120.95117 c 6.14215,-0.35205 10.3985,1.20124 13.34179,6.60449 1.45245,2.71692 2.6194,6.55436 -0.0908,8.99121 -1.91867,3.114 -4.14232,4.80912 -6.69726,1.88477 -1.29144,-1.49411 -4.85566,-3.64106 -2.30469,-5.27344 2.92943,-0.90811 3.45476,3.76218 6.04785,3.50195 2.59559,-0.90765 2.26509,-3.95427 0.99414,-5.82422 -2.99887,-8.37482 -14.5905,-8.81316 -20.80664,-6.04297 -3.15125,1.45045 -8.17201,6.62463 -6.03008,10.36352 1.01225,1.87021 6.06774,2.07152 6.575,0.12476 0.25519,-2.21302 2.3008,-3.45913 2.917,-0.74316 -1.48772,2.61764 -3.86881,7.5132 -7.6211,4.28809 -4.62569,-3.23111 -5.07446,-8.90058 -1.00095,-12.31641 3.85483,-3.79047 9.39705,-5.50413 14.67578,-5.55859 z"
         style="opacity:1;fill:#a96636;fill-opacity:1;stroke:none;stroke-width:4;stroke-linecap:butt;stroke-linejoin:miter;stroke-miterlimit:4;stroke-dasharray:none;stroke-dashoffset:0;stroke-opacity:1" />
      <path
         sodipodi:nodetypes="ccccccccc"
         inkscape:connector-curvature="0"
         id="path6195-6"
         d="m 365.58314,475.19549 c 21.90152,1.96262 41.98908,-1.51664 70.96271,21.6623 3.35872,3.30315 6.86183,6.38972 11.20464,8.21673 19.3319,15.82614 28.23534,38.73932 28.75856,60.50504 -3.3741,32.15662 -14.10826,73.88439 -3.73487,95.23943 3.62808,15.40921 25.01804,71.24161 -5.97581,15.68649 8.80511,9.95871 21.16904,67.48927 4.2951,39.58972 -5.66924,9.74163 -8.51624,-18.61393 -10.13176,-7.66977 -6.9189,13.23064 -14.06305,-15.7709 -15.44894,-10.19357"
         style="fill:none;fill-rule:evenodd;stroke:#000000;stroke-width:5.91574669;stroke-linecap:round;stroke-linejoin:miter;stroke-miterlimit:4;stroke-dasharray:none;stroke-opacity:1" />
      <path
         inkscape:connector-curvature="0"
         id="path5989"
         d="m 233.50741,825.2547 c -0.0587,13.42433 -0.008,26.85991 -0.0251,40.28857 0.37446,0.70617 1.14153,-0.26399 1.66406,-0.4165 5.45942,-3.19416 10.3138,-8.00344 12.2696,-14.14476 1.01413,-2.97607 1.06525,-6.22008 0.5634,-9.29958 -0.96264,-4.51973 -3.56783,-8.57821 -6.98901,-11.64233 -2.15013,-1.9619 -4.55132,-3.72531 -7.19025,-4.93922 -0.14357,-0.0826 -0.19508,0.10263 -0.29266,0.15382 z"
         style="opacity:1;fill:#808080;fill-opacity:1;stroke:none;stroke-width:8;stroke-linecap:butt;stroke-linejoin:miter;stroke-miterlimit:4;stroke-dasharray:none;stroke-dashoffset:0;stroke-opacity:1" />
      <path
         inkscape:connector-curvature="0"
         id="path7632"
         d="m 252.38677,721.23715 c -4.58526,-0.23527 -9.52041,0.45254 -12.99999,3.72958 -3.08275,2.75844 -5.75964,6.59038 -5.40588,10.92268 -0.3949,26.50044 -0.20299,53.00732 -0.34075,79.51033 4.13122,2.26165 8.58771,4.32787 12.15893,7.5938 7.0479,5.93676 11.71971,15.10534 10.80064,24.42626 -0.74867,10.34341 -7.86492,19.52033 -16.67225,24.67347 -1.93403,1.25583 -4.26616,2.10887 -6.10916,3.33735 0.4831,6.30747 5.31112,11.95978 11.39312,13.66774 6.38004,0.76023 12.87785,0.32012 19.30178,0.51872 70.04835,0.17141 140.09777,0.21248 210.14604,-0.006 4.94204,-0.16012 9.93865,0.17776 14.85066,-0.36401 6.86206,-1.61702 12.43195,-8.3103 11.82967,-15.50098 0.34041,-37.12842 0.013,-74.26086 0.0526,-111.39082 -0.0313,-9.81929 0.0124,-19.64685 -0.0659,-29.46097 -1.99396,-5.49141 -6.48736,-10.30437 -12.42409,-11.31164 -2.17559,-0.35291 -4.58758,-0.59617 -6.67194,-0.12844 -0.26926,2.37819 -1.93801,5.42386 -4.76606,4.91315 -2.77995,-0.42125 -4.5877,-2.95371 -6.29146,-4.83581 -48.02847,-0.4554 -96.06333,-0.23585 -144.09441,-0.299 -19.51357,0 -39.02713,0 -58.5407,0 -0.45908,1.41224 0.48714,3.38832 1.03096,4.9097 1.14164,3.06471 4.24746,4.36506 6.60773,6.26935 3.67627,3.59772 2.38704,9.10604 2.08333,13.63529 -0.3005,2.01681 0.65548,5.20202 -1.73047,6.22102 -1.82129,0.38811 -3.90099,-0.65646 -3.81451,-2.75592 -0.63183,-4.0473 0.76985,-8.13363 0.14846,-12.15064 -1.08198,-2.30153 -4.26963,-2.33605 -5.62923,-4.4864 -2.83662,-3.15218 -3.8721,-7.40365 -4.82752,-11.4166 -3.12777,-0.5277 -6.75519,-0.0851 -10.01965,-0.22097 z m 115.53047,62.11837 c 12.82976,-0.33741 23.96021,12.72808 21.66205,25.25351 -1.36101,9.94024 -10.12059,18.3027 -20.15807,18.93375 -9.50348,0.9481 -19.10118,-5.14427 -22.41196,-14.12142 -2.50982,-6.78242 -1.64375,-14.87393 2.54392,-20.82236 4.17192,-5.7276 11.25421,-9.4215 18.36406,-9.24348 z"
         style="opacity:1;fill:#808080;fill-opacity:1;stroke:none;stroke-width:8;stroke-linecap:butt;stroke-linejoin:miter;stroke-miterlimit:4;stroke-dasharray:none;stroke-dashoffset:0;stroke-opacity:1" />
      <path
         inkscape:connector-curvature="0"
         id="rect5147"
         d="m 263.20488,721.27081 h 18.80844 c 5.64019,0 10.18086,4.54067 10.18086,10.18087 v 11.7198 c 0,5.6402 -4.54067,10.18087 -10.18086,10.18087 h -18.80844 c -5.6402,0 -10.18086,-4.54067 -10.18086,-10.18087 v -11.7198 c 0,-5.6402 4.54066,-10.18087 10.18086,-10.18087 z"
         style="opacity:1;fill:#808080;fill-opacity:1;stroke:none;stroke-width:8;stroke-linecap:butt;stroke-linejoin:miter;stroke-miterlimit:4;stroke-dasharray:none;stroke-dashoffset:0;stroke-opacity:1" />
      <path
         inkscape:connector-curvature="0"
         id="rect4228"
         d="m 366.03827,799.68628 c 0.68384,0 1.23437,0.8088 1.23437,1.81345 0,1.00465 -0.55053,1.81344 -1.23437,1.81344 -0.68384,0 -1.23438,-0.80879 -1.23438,-1.81344 0,-1.00465 0.55054,-1.81345 1.23438,-1.81345 z"
         style="opacity:1;fill:#ffffff;fill-opacity:1;stroke:none;stroke-width:8;stroke-linecap:butt;stroke-linejoin:miter;stroke-miterlimit:4;stroke-dasharray:none;stroke-dashoffset:0;stroke-opacity:1" />
      <path
         sodipodi:nodetypes="ccccccccccccccccccccc"
         inkscape:connector-curvature="0"
         id="path6314-3"
         d="m 419.3612,658.20657 c 2.0904,3.54671 4.02589,8.4872 6.33827,10.03564 1.88092,6.6905 9.55609,11.80824 3.69735,20.59948 -4.38445,10.33733 -12.44037,14.18849 -20.46745,18.09056 -3.9776,1.23019 -7.17758,3.62687 -10.43175,5.94216 8.50196,-22.38708 4.30555,-18.33802 -9.77156,-4.09349 -3.70333,3.52128 -5.6485,7.04256 -7.26262,10.56384 -2.94432,-0.2998 -4.33937,-0.7025 -5.92808,0.0705 -3.35762,-19.99527 -0.20921,-17.88698 1.43841,-21.19815 l 6.86647,-8.05492 c -2.07731,3.60932 -4.50439,7.21862 -5.94214,10.82793 -4.17497,10.86166 -0.14279,17.46679 0.13207,17.69442 2.10808,-2.47068 8.88841,-13.94392 19.93924,-22.71224 l 9.37543,-5.28192 7.92282,-6.47035 c -2.02201,4.31826 -7.20813,7.1963 -8.05489,10.95998 -0.60163,3.68171 -5.20386,12.75968 -1.05641,10.03564 8.21291,-3.18652 13.73415,-8.48787 18.48671,-14.39323 5.85334,-6.89306 1.28587,-12.52301 -0.5282,-18.4867 l -5.14988,-14.39322 5.14988,14.39322"
         style="fill:#000000;fill-rule:evenodd;stroke:#000000;stroke-width:2.21840525;stroke-linecap:butt;stroke-linejoin:miter;stroke-miterlimit:4;stroke-dasharray:none;stroke-opacity:1" />
      <path
         sodipodi:nodetypes="cccccccccccc"
         inkscape:connector-curvature="0"
         id="path6324"
         d="m 291.48626,672.17516 c -2.31148,6.89843 -3.23438,14.53744 -2.90505,22.8443 0.37461,5.15935 1.22109,8.18143 4.55564,-0.0661 1.55243,-3.31473 3.35669,-6.56652 5.61204,-9.70552 -1.45023,10.6426 -1.2727,21.40147 -0.2641,32.21969 -0.67275,2.4719 -0.7445,2.09099 -1.78264,0.13206 l -1.25445,-6.47035 c -1.23259,-19.70051 -2.53107,-3.65586 -4.09349,0 -0.60091,7.97005 -1.95916,0.54112 -3.03711,-1.18843 -3.95058,-13.89189 -3.75436,-26.44828 1.58458,-37.69968 1.55956,-3.47488 3.88837,-9.52498 1.58458,-0.0661 z"
         style="fill:#000000;fill-rule:evenodd;stroke:#000000;stroke-width:1.47893667;stroke-linecap:butt;stroke-linejoin:miter;stroke-miterlimit:4;stroke-dasharray:none;stroke-opacity:1" />
      <path
         sodipodi:nodetypes="cc"
         inkscape:connector-curvature="0"
         id="path6272"
         d="m 361.25041,653.393 c 5.88104,3.13616 20.58758,0.82656 23.3493,-8.60536"
         style="fill:none;fill-rule:evenodd;stroke:#000000;stroke-width:4.43681049;stroke-linecap:round;stroke-linejoin:miter;stroke-miterlimit:4;stroke-dasharray:none;stroke-opacity:1" />
      <path
         sodipodi:nodetypes="cccc"
         inkscape:connector-curvature="0"
         id="path6267-9"
         d="m 360.83601,611.97429 c -2.21775,7.94677 -9.52018,4.19982 -9.49984,-1.54048 1.54235,-12.26577 29.35099,-16.15301 30.74138,1.61366 -1.1417,4.43105 -5.14334,7.02394 -9.44202,0"
         style="fill:none;fill-rule:evenodd;stroke:#000000;stroke-width:4.43681049;stroke-linecap:round;stroke-linejoin:miter;stroke-miterlimit:4;stroke-dasharray:none;stroke-opacity:1" />
      <path
         sodipodi:nodetypes="ccccccc"
         inkscape:connector-curvature="0"
         id="path8113"
         d="m 323.52165,589.72217 c 0.017,4.39897 -5.13629,4.13515 -5.33654,0.32019 -1.47175,-13.94641 3.47278,-17.83198 10.77982,-18.78463 8.5805,-0.0109 13.11067,4.87291 12.8077,18.57116 0.36525,2.82533 -3.65318,5.17413 -5.12308,0.53367 -1.24826,-5.7498 -0.89475,-12.89766 -7.2577,-13.23464 -3.65389,0.2442 -5.63495,3.23172 -5.8702,12.59425 z"
         style="fill:#000000;fill-rule:evenodd;stroke:#000000;stroke-width:1.20752192px;stroke-linecap:butt;stroke-linejoin:miter;stroke-opacity:1" />
      <path
         sodipodi:nodetypes="ccccc"
         inkscape:connector-curvature="0"
         id="path8118"
         d="m 317.70127,554.33032 c -4.33994,3.11385 0.0832,3.48781 2.11317,2.94334 4.71614,-1.50779 8.84606,-4.2369 15.84872,-0.98112 3.43348,0.88519 6.55598,-0.95449 3.39616,-2.86786 -6.07037,-2.28971 -11.96621,-5.01062 -21.35805,0.90564 z"
         style="fill:#000000;fill-rule:evenodd;stroke:#000000;stroke-width:1.20752192px;stroke-linecap:butt;stroke-linejoin:miter;stroke-opacity:1" />
      <path
         sodipodi:nodetypes="ccccccc"
         inkscape:connector-curvature="0"
         id="path8113-2"
         d="m 410.69706,590.27637 c -0.017,4.39897 5.13629,4.13515 5.33654,0.32019 1.47175,-13.94641 -3.47278,-17.83198 -10.77982,-18.78463 -8.5805,-0.0109 -13.11067,4.87291 -12.8077,18.57116 -0.36525,2.82533 3.65318,5.17413 5.12308,0.53367 1.24826,-5.7498 0.89475,-12.89766 7.2577,-13.23464 3.65389,0.2442 5.63495,3.23172 5.8702,12.59425 z"
         style="fill:#000000;fill-rule:evenodd;stroke:#000000;stroke-width:1.20752192px;stroke-linecap:butt;stroke-linejoin:miter;stroke-opacity:1" />
      <path
         sodipodi:nodetypes="ccccc"
         inkscape:connector-curvature="0"
         id="path8118-8"
         d="m 416.51744,554.88452 c 4.33994,3.11385 -0.0832,3.48781 -2.11317,2.94334 -4.71614,-1.50779 -8.84606,-4.2369 -15.84872,-0.98112 -3.43348,0.88519 -6.55598,-0.95449 -3.39616,-2.86786 6.07037,-2.28971 11.96621,-5.01062 21.35805,0.90564 z"
         style="fill:#000000;fill-rule:evenodd;stroke:#000000;stroke-width:1.20752192px;stroke-linecap:butt;stroke-linejoin:miter;stroke-opacity:1" />
      <path
         sodipodi:nodetypes="csccc"
         inkscape:connector-curvature="0"
         id="path7693"
         d="m 296.69707,616.84377 c -3.14305,6.58214 -5.56861,13.27165 -5.71903,20.323 -0.15339,7.19012 -4.29274,13.7287 -6.63817,20.52725 1.52451,-6.75259 3.23382,-13.19717 3.9829,-21.24213 1.27705,-10.40609 4.67998,-15.37945 8.3743,-19.60812 z"
         style="fill:#000000;fill-rule:evenodd;stroke:#000000;stroke-width:0.36973417;stroke-linecap:round;stroke-linejoin:miter;stroke-miterlimit:4;stroke-dasharray:none;stroke-opacity:1" />
    </g>
  </g>
  <style
     id="style4137"
     type="text/css">
	.st0{fill:none;stroke:#5D5C74;stroke-width:4;stroke-miterlimit:10;}
	.st1{fill:#4FC1EA;stroke:#5D5C74;stroke-width:3;stroke-miterlimit:10;}
	.st2{fill:#5C5C74;}
	.st3{fill:#344258;stroke:#5D5C74;stroke-width:4;stroke-miterlimit:10;}
	.st4{fill:#FBD7CE;}
	.st5{fill:#E4E6E9;}
	.st6{fill:#CDCFD2;}
	.st7{fill:#5D5C74;}
	.st8{fill:#FFFFFF;}
	.st9{fill:#DFE1E2;}
	.st10{fill:#EDEEEF;}
	.st11{fill:none;stroke:#5D5C74;stroke-width:3;stroke-miterlimit:10;}
	.st12{fill:none;stroke:#F39200;stroke-width:3;stroke-miterlimit:10;}
	.st13{fill:none;stroke:#4FC1EB;stroke-width:3;stroke-miterlimit:10;}
</style>
  <style
     id="style6911"
     type="text/css">
	.st0{fill:none;stroke:#5D5C74;stroke-width:4;stroke-miterlimit:10;}
	.st1{fill:#4FC1EA;stroke:#5D5C74;stroke-width:3;stroke-miterlimit:10;}
	.st2{fill:#5C5C74;}
	.st3{fill:#344258;stroke:#5D5C74;stroke-width:4;stroke-miterlimit:10;}
	.st4{fill:#FBD7CE;}
	.st5{fill:#E4E6E9;}
	.st6{fill:#CDCFD2;}
	.st7{fill:#5D5C74;}
	.st8{fill:#FFFFFF;}
	.st9{fill:#DFE1E2;}
	.st10{fill:#EDEEEF;}
	.st11{fill:none;stroke:#5D5C74;stroke-width:3;stroke-miterlimit:10;}
	.st12{fill:none;stroke:#F39200;stroke-width:3;stroke-miterlimit:10;}
	.st13{fill:none;stroke:#4FC1EB;stroke-width:3;stroke-miterlimit:10;}
</style>
  <style
     id="style7308"
     type="text/css">
	.st0{fill:none;stroke:#5D5C74;stroke-width:4;stroke-miterlimit:10;}
	.st1{fill:#4FC1EA;stroke:#5D5C74;stroke-width:3;stroke-miterlimit:10;}
	.st2{fill:#5C5C74;}
	.st3{fill:#344258;stroke:#5D5C74;stroke-width:4;stroke-miterlimit:10;}
	.st4{fill:#FBD7CE;}
	.st5{fill:#E4E6E9;}
	.st6{fill:#CDCFD2;}
	.st7{fill:#5D5C74;}
	.st8{fill:#FFFFFF;}
	.st9{fill:#DFE1E2;}
	.st10{fill:#EDEEEF;}
	.st11{fill:none;stroke:#5D5C74;stroke-width:3;stroke-miterlimit:10;}
	.st12{fill:none;stroke:#F39200;stroke-width:3;stroke-miterlimit:10;}
	.st13{fill:none;stroke:#4FC1EB;stroke-width:3;stroke-miterlimit:10;}
</style>
</svg>
